<?xml version="1.0" encoding="UTF-8" standalone="no"?>
<!DOCTYPE svg PUBLIC "-//W3C//DTD SVG 1.1//EN" "http://www.w3.org/Graphics/SVG/1.1/DTD/svg11.dtd">
<svg width="100%" height="100%" viewBox="0 0 90 90" version="1.1" xmlns="http://www.w3.org/2000/svg" xmlns:xlink="http://www.w3.org/1999/xlink" xml:space="preserve" xmlns:serif="http://www.serif.com/" style="fill-rule:evenodd;clip-rule:evenodd;stroke-linejoin:round;stroke-miterlimit:2;">
    <g id="iStock-1053003062" transform="matrix(0.150235,0,0,0.150235,-336.06,-108.208)">
        <path d="M2526.51,922.917L2527.35,922.971L2534.84,922.971C2535.29,922.933 2535.74,922.917 2536.2,922.917L2536.61,922.917C2537.09,922.917 2537.56,922.933 2538.02,922.971L2545.52,922.971L2546.3,922.917L2546.88,922.917C2551.45,922.925 2555.35,924.558 2558.6,927.812C2561.04,930.25 2562.58,933.062 2563.18,936.25C2563.4,937.304 2563.53,938.396 2563.54,939.529L2563.54,954.742C2565.75,954.879 2567.93,955.033 2570.1,955.208C2583.84,956.179 2597.12,957.658 2609.95,959.637C2611.75,959.921 2613.56,960.212 2615.37,960.521C2616.03,960.608 2616.68,960.692 2617.34,960.783C2621.87,961.571 2625.5,963.429 2628.23,966.354C2629.58,967.783 2630.7,969.462 2631.62,971.408L2658.75,1026.25C2661.76,1031.44 2663.88,1034.74 2665.1,1036.15L2681.15,1054.38C2682.06,1055.42 2682.9,1056.5 2683.65,1057.6C2688.29,1064.33 2690.1,1072.25 2689.06,1081.35C2688.66,1085.35 2688.25,1089.22 2687.81,1092.97L2687.76,1093.75C2686.88,1101.29 2685.92,1108.32 2684.9,1114.85L2684.9,1175.94C2684.88,1178.8 2683.88,1181.23 2681.88,1183.23C2680.05,1185.05 2677.87,1186.04 2675.37,1186.2L2650.89,1186.2C2648.4,1186.04 2646.26,1185.05 2644.48,1183.23C2642.49,1181.29 2641.45,1178.95 2641.35,1176.2L2641.35,1156.2C2606.44,1158.6 2571.47,1159.8 2536.46,1159.79C2509.97,1159.8 2483.51,1159.12 2457.08,1157.76C2454.9,1157.65 2452.71,1157.53 2450.52,1157.4C2444.17,1157.03 2437.81,1156.63 2431.46,1156.2L2431.46,1176.2C2431.4,1178.95 2430.39,1181.29 2428.44,1183.23C2426.62,1185.05 2424.45,1186.04 2421.93,1186.2L2397.45,1186.2C2394.94,1186.04 2392.77,1185.05 2390.94,1183.23C2388.96,1181.23 2387.97,1178.8 2387.97,1175.94L2387.97,1114.85C2386.94,1108.32 2385.99,1101.29 2385.1,1093.75L2385.05,1092.97C2384.62,1089.22 2384.2,1085.35 2383.8,1081.35C2382.77,1072.25 2384.57,1064.33 2389.22,1057.6C2389.97,1056.5 2390.8,1055.42 2391.72,1054.38L2407.76,1036.15C2409,1034.74 2411.13,1031.44 2414.17,1026.25L2441.25,971.408C2442.16,969.462 2443.29,967.783 2444.63,966.354C2447.37,963.429 2451,961.571 2455.52,960.783C2456.16,960.692 2456.8,960.608 2457.45,960.521C2459.25,960.212 2461.05,959.921 2462.86,959.637C2475.69,957.658 2488.97,956.179 2502.71,955.208C2504.92,955.033 2507.14,954.879 2509.38,954.742L2509.38,939.529C2509.36,938.396 2509.45,937.304 2509.64,936.25C2510.22,933.062 2511.73,930.25 2514.17,927.812C2517.44,924.558 2521.38,922.925 2525.99,922.917L2526.51,922.917ZM2637.03,1061.92C2633.64,1065.28 2631.94,1069.34 2631.93,1074.12C2631.94,1078.92 2633.64,1083.02 2637.03,1086.4C2640.38,1089.78 2644.45,1091.46 2649.22,1091.46C2654.03,1091.46 2658.12,1089.78 2661.51,1086.4C2664.86,1083.02 2666.53,1078.92 2666.51,1074.12C2666.53,1069.34 2664.86,1065.28 2661.51,1061.92C2658.12,1058.56 2654.03,1056.88 2649.22,1056.88C2644.45,1056.88 2640.38,1058.56 2637.03,1061.92ZM2435.88,1061.92C2432.53,1058.56 2428.47,1056.88 2423.7,1056.88C2418.89,1056.88 2414.79,1058.56 2411.4,1061.92C2408.05,1065.28 2406.39,1069.34 2406.41,1074.12C2406.39,1078.92 2408.05,1083.02 2411.4,1086.4C2414.79,1089.78 2418.89,1091.46 2423.7,1091.46C2428.47,1091.46 2432.53,1089.78 2435.88,1086.4C2439.27,1083.02 2440.97,1078.92 2440.99,1074.12C2440.97,1069.34 2439.27,1065.28 2435.88,1061.92ZM2552.66,971.3L2552.19,971.25C2547.14,971.108 2541.88,971.004 2536.4,970.937C2530.93,971.004 2525.67,971.108 2520.62,971.25L2520.16,971.3L2519.22,971.354L2506.88,971.875C2505.98,971.95 2505.1,972.017 2504.22,972.083C2494.71,972.662 2485.38,973.463 2476.25,974.479C2473.26,974.837 2470.29,975.221 2467.35,975.625L2466.61,975.679C2464.92,975.925 2463.39,976.379 2462.03,977.029C2459.19,978.304 2457.03,980.387 2455.52,983.279L2439.43,1017.55C2444.2,1017.31 2448.97,1017.08 2453.75,1016.88C2481.34,1015.64 2508.89,1015 2536.4,1014.95C2563.9,1015 2591.44,1015.64 2619.01,1016.88C2623.77,1017.08 2628.53,1017.31 2633.28,1017.55L2617.13,983.279C2615.68,980.387 2613.57,978.304 2610.78,977.029C2609.4,976.379 2607.86,975.925 2606.15,975.679L2605.42,975.625C2602.49,975.221 2599.54,974.837 2596.56,974.479C2587.41,973.463 2578.07,972.662 2568.54,972.083C2567.68,972.017 2566.81,971.95 2565.94,971.875L2553.59,971.354L2552.66,971.3ZM2546.15,943.021C2546.13,940.387 2545.18,938.129 2543.28,936.25C2541.4,934.371 2539.13,933.433 2536.46,933.437C2533.79,933.433 2531.52,934.371 2529.63,936.25C2527.76,938.129 2526.82,940.387 2526.83,943.021C2526.82,945.654 2527.76,947.912 2529.63,949.792C2531.52,951.667 2533.79,952.608 2536.46,952.604C2539.13,952.608 2541.4,951.667 2543.28,949.792C2545.18,947.912 2546.13,945.654 2546.15,943.021ZM2564.5,921.008C2563.06,918.458 2561.23,916.067 2559.01,913.838C2552.8,907.65 2545.3,904.554 2536.53,904.558L2536.48,904.558C2527.72,904.55 2520.26,907.646 2514.08,913.838C2511.87,916.042 2510.06,918.404 2508.64,920.925L2492.23,911.983C2494.47,907.958 2497.34,904.188 2500.83,900.675C2510.68,890.821 2522.55,885.883 2536.48,885.867C2550.44,885.883 2562.37,890.821 2572.26,900.675C2575.75,904.196 2578.62,907.979 2580.86,912.025L2564.5,921.008ZM2593.05,905.317C2590.17,900.163 2586.49,895.338 2582,890.846C2569.43,878.271 2554.25,871.971 2536.48,871.95C2518.72,871.971 2503.56,878.271 2491,890.846C2486.54,895.313 2482.87,900.108 2479.99,905.233L2463.63,896.288C2467.33,889.658 2472.07,883.454 2477.84,877.687C2494.03,861.496 2513.58,853.392 2536.48,853.387C2559.38,853.383 2578.92,861.467 2595.12,877.642C2600.94,883.454 2605.72,889.696 2609.46,896.375L2593.05,905.317Z" style="fill:rgb(0,104,178);"/>
    </g>
</svg>
