<?xml version="1.0" encoding="UTF-8" standalone="no"?>
<!DOCTYPE svg PUBLIC "-//W3C//DTD SVG 1.1//EN" "http://www.w3.org/Graphics/SVG/1.1/DTD/svg11.dtd">
<svg width="100%" height="100%" viewBox="0 0 90 90" version="1.1" xmlns="http://www.w3.org/2000/svg" xmlns:xlink="http://www.w3.org/1999/xlink" xml:space="preserve" xmlns:serif="http://www.serif.com/" style="fill-rule:evenodd;clip-rule:evenodd;stroke-linejoin:round;stroke-miterlimit:2;">
    <g id="iStock-1053003062" transform="matrix(0.161562,0,0,0.161562,-278.746,-20.5924)">
        <path d="M2044.06,394.587C2045.41,393.279 2047,392.621 2048.85,392.608C2050.68,392.621 2052.25,393.279 2053.54,394.587C2054.86,395.896 2055.52,397.458 2055.52,399.275L2055.52,413.804C2059.51,413.808 2063.51,413.808 2067.5,413.804L2067.5,399.275C2067.53,398.367 2067.72,397.533 2068.07,396.775C2068.4,395.971 2068.88,395.242 2069.53,394.587C2070.05,394.075 2070.6,393.658 2071.2,393.338L2071.82,393.075C2072.54,392.775 2073.32,392.617 2074.17,392.608L2074.27,392.608L2076.77,393.075C2077.53,393.425 2078.22,393.929 2078.85,394.587L2078.91,394.638L2079.48,393.958C2079.83,393.617 2080.21,393.342 2080.62,393.129C2080.23,393.342 2079.87,393.621 2079.53,393.958L2078.96,394.692C2079.92,395.642 2080.53,396.717 2080.78,397.917C2080.88,398.358 2080.94,398.813 2080.94,399.275L2080.94,413.804C2084.93,413.817 2088.93,413.833 2092.92,413.858L2092.92,399.275C2092.95,397.458 2093.63,395.896 2094.95,394.587C2096.24,393.279 2097.79,392.621 2099.58,392.608L2099.69,392.608C2101.48,392.621 2103.01,393.279 2104.27,394.587C2105.62,395.896 2106.32,397.458 2106.35,399.275L2106.35,413.804L2107.45,413.858L2107.19,413.858C2115.14,414.304 2122,417.408 2127.76,423.179C2133.75,429.146 2136.89,436.283 2137.19,444.583L2151.67,444.583C2153.48,444.567 2155.05,445.192 2156.35,446.458C2157.66,447.804 2158.32,449.4 2158.33,451.25C2158.32,453.079 2157.66,454.642 2156.35,455.937C2155.05,457.254 2153.48,457.917 2151.67,457.917L2137.19,457.917L2137.19,469.896L2151.67,469.896C2152.57,469.921 2153.41,470.113 2154.17,470.471C2154.97,470.792 2155.7,471.275 2156.35,471.929C2156.86,472.442 2157.28,473 2157.6,473.596L2157.87,474.221C2158.17,474.937 2158.32,475.717 2158.33,476.563L2158.33,476.667L2157.87,479.167C2157.51,479.929 2157.01,480.625 2156.35,481.25L2156.3,481.304L2156.98,481.875C2157.32,482.229 2157.6,482.613 2157.81,483.021C2157.6,482.629 2157.32,482.267 2156.98,481.929L2156.25,481.354C2155.3,482.313 2154.22,482.921 2153.02,483.179C2152.58,483.279 2152.13,483.333 2151.67,483.333L2137.19,483.333L2137.19,495.313L2151.67,495.313C2153.48,495.346 2155.05,496.025 2156.35,497.342C2157.66,498.637 2158.32,500.183 2158.33,501.979L2158.33,502.083C2158.32,503.879 2157.66,505.404 2156.35,506.667C2155.05,508.021 2153.48,508.713 2151.67,508.75L2137.19,508.75C2136.9,517.092 2133.77,524.258 2127.76,530.263C2121.8,536.204 2114.66,539.312 2106.35,539.583L2106.35,554.062C2106.37,555.879 2105.75,557.442 2104.48,558.75C2103.13,560.054 2101.54,560.712 2099.69,560.729C2097.86,560.712 2096.3,560.054 2095,558.75C2093.68,557.442 2093.02,555.879 2093.02,554.062L2093.02,539.583L2081.04,539.583L2081.04,554.062C2081.02,554.971 2080.82,555.804 2080.47,556.563C2080.15,557.367 2079.66,558.096 2079.01,558.75C2078.5,559.263 2077.94,559.675 2077.35,560L2076.72,560.263C2076,560.562 2075.22,560.717 2074.38,560.729L2074.27,560.729L2071.77,560.263C2071.01,559.908 2070.31,559.408 2069.69,558.75L2069.63,558.7L2069.06,559.375C2068.71,559.717 2068.32,559.996 2067.92,560.208C2068.31,559.992 2068.67,559.717 2069.01,559.375L2069.58,558.646C2068.62,557.696 2068.02,556.621 2067.76,555.417C2067.66,554.975 2067.61,554.525 2067.6,554.062L2067.6,539.583L2055.62,539.583L2055.62,554.062C2055.59,555.879 2054.92,557.442 2053.59,558.75C2052.3,560.054 2050.75,560.712 2048.96,560.729L2048.85,560.729C2047.06,560.712 2045.53,560.054 2044.27,558.75C2042.92,557.442 2042.23,555.879 2042.19,554.062L2042.19,539.583C2033.87,539.325 2026.72,536.217 2020.73,530.263C2015.02,524.517 2011.92,517.708 2011.46,509.842L2011.46,508.75L1996.88,508.75C1995.06,508.767 1993.5,508.146 1992.19,506.875C1990.88,505.529 1990.22,503.933 1990.21,502.083C1990.22,500.254 1990.88,498.692 1992.19,497.396C1993.5,496.079 1995.06,495.417 1996.88,495.417L2011.46,495.417L2011.46,483.438L1996.88,483.438C1995.97,483.412 1995.13,483.221 1994.38,482.867C1993.57,482.546 1992.84,482.058 1992.19,481.408C1991.68,480.892 1991.26,480.333 1990.94,479.742L1990.68,479.112C1990.38,478.396 1990.22,477.617 1990.21,476.771L1990.21,476.667L1990.68,474.167C1991.03,473.404 1991.53,472.708 1992.19,472.083L1992.24,472.033L1991.56,471.458C1991.22,471.104 1990.94,470.725 1990.73,470.313C1990.95,470.704 1991.23,471.071 1991.56,471.408L1992.29,471.979C1993.24,471.021 1994.32,470.412 1995.52,470.158C1995.96,470.054 1996.41,470.004 1996.88,470L2011.51,470C2011.52,466.008 2011.52,462.012 2011.51,458.021L1996.88,458.021C1995.06,457.987 1993.5,457.308 1992.19,455.992C1990.88,454.696 1990.22,453.15 1990.21,451.354L1990.21,451.25C1990.22,449.458 1990.88,447.929 1992.19,446.667C1993.5,445.313 1995.06,444.621 1996.88,444.583L2011.4,444.583L2011.46,443.492C2011.95,435.658 2015.05,428.887 2020.73,423.179C2026.71,417.208 2033.86,414.104 2042.19,413.858L2042.19,399.275C2042.17,397.458 2042.8,395.896 2044.06,394.587ZM1882.53,489.221L1854.7,500.746L1879.02,428.621L1879.04,428.567L1947.36,462.367L1918.03,474.517C1930.83,504.887 1954.69,520.146 1989.62,520.3C1968.62,529.112 1949.95,531.996 1933.62,528.946C1932.5,528.733 1931.39,528.5 1930.3,528.246C1928.94,527.929 1927.6,527.562 1926.27,527.154C1908.83,521.817 1894.25,509.171 1882.53,489.221ZM2105.15,431.563L2043.39,431.563C2039.45,431.575 2036.08,432.979 2033.28,435.783C2030.48,438.563 2029.08,441.913 2029.06,445.833L2029.06,507.604C2029.08,511.546 2030.48,514.912 2033.28,517.708C2036.08,520.475 2039.45,521.846 2043.39,521.821L2105.15,521.821C2109.1,521.846 2112.46,520.475 2115.26,517.708C2118.05,514.912 2119.43,511.546 2119.43,507.604L2119.43,445.833C2119.43,441.913 2118.05,438.563 2115.26,435.783C2112.46,432.979 2109.1,431.575 2105.15,431.563ZM2091.28,459.683C2095.98,464.388 2098.33,470.042 2098.33,476.65C2098.33,483.258 2095.98,488.917 2091.28,493.621C2086.57,498.325 2080.92,500.675 2074.31,500.675C2067.7,500.675 2062.04,498.325 2057.34,493.621C2052.64,488.917 2050.28,483.258 2050.28,476.65C2050.28,470.042 2052.64,464.388 2057.34,459.683C2062.04,454.979 2067.7,452.625 2074.31,452.625C2080.92,452.625 2086.57,454.979 2091.28,459.683ZM1991.56,465.208C1991.13,465.633 1990.8,466.1 1990.57,466.612C1990.8,466.079 1991.12,465.596 1991.56,465.158C1992.22,464.5 1992.97,464.104 1993.8,463.958C1992.97,464.125 1992.22,464.542 1991.56,465.208ZM1930.99,251.721C1931.7,251.421 1932.49,251.262 1933.33,251.25L1933.44,251.25L1935.94,251.721C1936.7,252.075 1937.4,252.575 1938.02,253.233L1938.08,253.283L1938.65,252.604C1939,252.263 1939.38,251.987 1939.79,251.771C1939.4,251.992 1939.04,252.267 1938.7,252.604L1938.12,253.333C1939.08,254.287 1939.69,255.362 1939.95,256.567C1940.05,257.004 1940.1,257.458 1940.1,257.921L1940.1,272.45C1944.1,272.462 1948.09,272.479 1952.08,272.504L1952.08,257.921C1952.12,256.104 1952.8,254.542 1954.11,253.233C1955.41,251.925 1956.95,251.267 1958.75,251.25L1958.85,251.25C1960.65,251.267 1962.17,251.925 1963.44,253.233C1964.79,254.542 1965.48,256.104 1965.52,257.921L1965.52,272.45L1966.61,272.504L1966.35,272.504C1974.3,272.946 1981.16,276.054 1986.92,281.825C1992.91,287.796 1996.05,294.933 1996.35,303.233L2010.83,303.233C2012.65,303.212 2014.21,303.838 2015.52,305.108C2016.83,306.45 2017.48,308.05 2017.5,309.896C2017.48,311.725 2016.83,313.288 2015.52,314.583C2014.21,315.904 2012.65,316.562 2010.83,316.567L1996.35,316.567L1996.35,328.546L2010.83,328.546C2011.74,328.571 2012.58,328.763 2013.33,329.117C2014.14,329.438 2014.87,329.925 2015.52,330.575C2016.03,331.092 2016.45,331.646 2016.77,332.242L2017.03,332.867C2017.33,333.583 2017.49,334.367 2017.5,335.212L2017.5,335.317L2017.03,337.817C2016.68,338.575 2016.17,339.271 2015.52,339.9L2015.47,339.95L2016.15,340.525C2016.49,340.879 2016.76,341.258 2016.98,341.667C2016.76,341.279 2016.49,340.912 2016.15,340.575L2015.42,340.004C2014.47,340.962 2013.39,341.571 2012.19,341.825C2011.75,341.929 2011.3,341.979 2010.83,341.983L1996.35,341.983L1996.35,353.962L2010.83,353.962C2012.65,353.992 2014.21,354.671 2015.52,355.992C2016.83,357.283 2017.48,358.833 2017.5,360.625L2017.5,360.733C2017.48,362.525 2016.83,364.054 2015.52,365.312C2014.21,366.667 2012.65,367.362 2010.83,367.396L1996.35,367.396C1996.08,375.738 1992.93,382.908 1986.92,388.908C1980.96,394.854 1973.83,397.958 1965.52,398.233L1965.52,412.708C1965.54,414.525 1964.91,416.088 1963.65,417.396C1962.3,418.7 1960.7,419.358 1958.85,419.375C1957.03,419.358 1955.46,418.7 1954.17,417.396C1952.85,416.088 1952.19,414.525 1952.19,412.708L1952.19,398.233L1940.21,398.233L1940.21,412.708C1940.18,413.617 1939.99,414.45 1939.64,415.213C1939.32,416.013 1938.83,416.742 1938.18,417.396C1937.66,417.904 1937.1,418.321 1936.51,418.646L1935.88,418.908C1935.17,419.208 1934.39,419.362 1933.54,419.375L1933.44,419.375L1930.94,418.908C1930.17,418.554 1929.48,418.054 1928.85,417.396L1928.8,417.346L1928.23,418.021C1927.88,418.362 1927.5,418.642 1927.08,418.854C1927.48,418.638 1927.84,418.362 1928.18,418.021L1928.75,417.292C1927.79,416.342 1927.18,415.271 1926.92,414.063C1926.83,413.625 1926.77,413.175 1926.77,412.708L1926.77,398.233L1914.79,398.233L1914.79,412.708C1914.76,414.525 1914.08,416.088 1912.76,417.396C1911.47,418.7 1909.92,419.358 1908.12,419.375L1908.02,419.375C1906.23,419.358 1904.7,418.7 1903.44,417.396C1902.08,416.088 1901.39,414.525 1901.35,412.708L1901.35,398.233C1893.03,397.971 1885.88,394.863 1879.9,388.908C1874.18,383.162 1871.09,376.358 1870.62,368.492L1870.62,367.396L1856.04,367.396C1854.23,367.417 1852.67,366.792 1851.35,365.525C1850.05,364.179 1849.39,362.579 1849.38,360.733C1849.39,358.904 1850.05,357.342 1851.35,356.046C1852.67,354.725 1854.23,354.067 1856.04,354.067L1870.62,354.067L1870.62,342.088L1856.04,342.088C1855.13,342.058 1854.3,341.867 1853.54,341.513C1852.74,341.192 1852.01,340.704 1851.35,340.054C1850.85,339.538 1850.43,338.983 1850.1,338.388L1849.84,337.762C1849.55,337.046 1849.39,336.267 1849.38,335.417L1849.38,335.317L1849.84,332.812C1850.2,332.054 1850.7,331.358 1851.35,330.729L1851.4,330.679L1850.73,330.108C1850.39,329.754 1850.11,329.371 1849.9,328.962C1850.11,329.35 1850.39,329.717 1850.73,330.054L1851.46,330.629C1852.41,329.671 1853.48,329.062 1854.69,328.804C1855.13,328.7 1855.58,328.65 1856.04,328.646L1870.67,328.646C1870.68,324.654 1870.68,320.662 1870.67,316.667L1856.04,316.667C1854.23,316.637 1852.67,315.958 1851.35,314.638C1850.05,313.346 1849.39,311.8 1849.38,310.004L1849.38,309.896C1849.39,308.104 1850.05,306.579 1851.35,305.317C1852.67,303.962 1854.23,303.267 1856.04,303.233L1870.58,303.233L1870.62,302.138C1871.12,294.308 1874.21,287.537 1879.9,281.825C1885.88,275.858 1893.03,272.746 1901.35,272.504L1901.35,257.921C1901.33,256.104 1901.96,254.542 1903.23,253.233C1904.58,251.925 1906.17,251.267 1908.02,251.25C1909.85,251.267 1911.41,251.925 1912.71,253.233C1914.03,254.542 1914.68,256.104 1914.69,257.921L1914.69,272.45C1918.68,272.454 1922.67,272.454 1926.67,272.45L1926.67,257.921C1926.69,257.012 1926.88,256.179 1927.24,255.417C1927.56,254.617 1928.05,253.887 1928.7,253.233C1929.21,252.721 1929.77,252.304 1930.37,251.983L1930.99,251.721ZM2125.28,320.992L2153.11,309.467L2128.79,381.592L2128.77,381.642L2060.45,347.846L2089.79,335.696C2076.99,305.325 2053.12,290.062 2018.18,289.912C2039.18,281.096 2057.85,278.217 2074.2,281.262C2075.31,281.475 2076.42,281.708 2077.51,281.967C2078.87,282.283 2080.21,282.646 2081.54,283.058C2098.97,288.392 2113.55,301.038 2125.28,320.992ZM1888.23,304.483L1888.23,366.254C1888.24,370.192 1889.65,373.558 1892.45,376.358C1895.25,379.125 1898.61,380.496 1902.55,380.471L1964.33,380.471C1968.26,380.496 1971.63,379.125 1974.42,376.358C1977.21,373.558 1978.6,370.192 1978.59,366.254L1978.59,304.483C1978.6,300.558 1977.21,297.208 1974.42,294.429C1971.63,291.629 1968.26,290.221 1964.33,290.213L1902.55,290.213C1898.61,290.221 1895.25,291.629 1892.45,294.429C1889.65,297.208 1888.24,300.558 1888.23,304.483ZM1933.33,306.617L1962.29,335.525L1933.39,364.379L1904.48,335.471L1933.33,306.617ZM1849.74,325.262C1849.96,324.729 1850.29,324.242 1850.73,323.804C1851.38,323.15 1852.13,322.75 1852.97,322.604C1852.13,322.771 1851.39,323.188 1850.73,323.858C1850.3,324.279 1849.97,324.75 1849.74,325.262Z" style="fill:rgb(0,104,178);"/>
    </g>
</svg>
