<?xml version="1.0" encoding="UTF-8" standalone="no"?>
<!DOCTYPE svg PUBLIC "-//W3C//DTD SVG 1.1//EN" "http://www.w3.org/Graphics/SVG/1.1/DTD/svg11.dtd">
<svg width="100%" height="100%" viewBox="0 0 90 90" version="1.1" xmlns="http://www.w3.org/2000/svg" xmlns:xlink="http://www.w3.org/1999/xlink" xml:space="preserve" xmlns:serif="http://www.serif.com/" style="fill-rule:evenodd;clip-rule:evenodd;stroke-linejoin:round;stroke-miterlimit:2;">
    <g id="iStock-1053003062" transform="matrix(0.143842,0,0,0.143842,-90.009,-281.296)">
        <path d="M865.625,2399.27L882.033,2390.32C884.929,2395.47 888.625,2400.3 893.125,2404.79C905.7,2417.38 920.875,2423.68 938.646,2423.7C956.408,2423.68 971.567,2417.38 984.117,2404.79C988.575,2400.33 992.242,2395.54 995.104,2390.42L1011.46,2399.33C1007.75,2405.95 1003.01,2412.15 997.238,2417.92C981.067,2434.12 961.537,2442.22 938.646,2442.24C915.75,2442.24 896.2,2434.15 880,2417.97C874.175,2412.17 869.379,2405.93 865.625,2399.27ZM894.217,2383.6L910.625,2374.63C912.054,2377.17 913.875,2379.55 916.092,2381.77C922.312,2387.95 929.812,2391.05 938.596,2391.04L938.646,2391.04C947.396,2391.05 954.863,2387.96 961.042,2381.77C963.246,2379.58 965.05,2377.21 966.458,2374.69L982.867,2383.65C980.625,2387.67 977.762,2391.44 974.271,2394.95C964.442,2404.8 952.563,2409.73 938.646,2409.74C924.683,2409.73 912.758,2404.8 902.867,2394.95C899.358,2391.42 896.475,2387.64 894.217,2383.6ZM1007.24,2199.63C1008.96,2201.36 1010.61,2203.12 1012.19,2204.9L1013.65,2203.44C1016.5,2200.58 1019.37,2197.71 1022.24,2194.85L1032.81,2184.27L1058.17,2184.27C1058.85,2183.17 1059.67,2182.13 1060.62,2181.15C1064.13,2177.73 1068.36,2176.03 1073.33,2176.04C1078.28,2176.03 1082.47,2177.73 1085.88,2181.15C1086.87,2182.13 1087.72,2183.17 1088.44,2184.27C1090.24,2187.09 1091.15,2190.28 1091.15,2193.85C1091.15,2197.45 1090.22,2200.65 1088.38,2203.44C1087.67,2204.48 1086.84,2205.47 1085.88,2206.4C1082.47,2209.91 1078.28,2211.66 1073.33,2211.67C1068.36,2211.66 1064.13,2209.91 1060.62,2206.4C1059.69,2205.47 1058.9,2204.48 1058.23,2203.44L1040.73,2203.44L1023.49,2220.68C1030.18,2232.31 1034.14,2245.07 1035.36,2258.96L1095.89,2258.96C1096.56,2257.86 1097.38,2256.82 1098.33,2255.83C1101.84,2252.42 1106.08,2250.72 1111.04,2250.73C1115.99,2250.72 1120.17,2252.42 1123.6,2255.83C1124.58,2256.82 1125.43,2257.86 1126.15,2258.96C1127.95,2261.78 1128.85,2264.97 1128.85,2268.54C1128.85,2272.14 1127.93,2275.33 1126.1,2278.12C1125.38,2279.18 1124.55,2280.16 1123.6,2281.1C1120.17,2284.6 1115.99,2286.35 1111.04,2286.35C1106.08,2286.35 1101.84,2284.6 1098.33,2281.1C1097.4,2280.16 1096.6,2279.18 1095.94,2278.12L1035.36,2278.12C1034.12,2292 1030.15,2304.75 1023.44,2316.36L1040.73,2333.65L1058.23,2333.65C1058.9,2332.6 1059.69,2331.61 1060.62,2330.68C1064.13,2327.17 1068.36,2325.43 1073.33,2325.42C1078.28,2325.43 1082.47,2327.17 1085.88,2330.68C1086.84,2331.61 1087.67,2332.6 1088.38,2333.65C1090.22,2336.43 1091.15,2339.63 1091.15,2343.23C1091.15,2346.8 1090.24,2350 1088.44,2352.82C1087.72,2353.91 1086.87,2354.95 1085.88,2355.94C1082.47,2359.35 1078.28,2361.05 1073.33,2361.04C1068.36,2361.05 1064.13,2359.35 1060.62,2355.94C1059.67,2354.95 1058.85,2353.91 1058.17,2352.82L1032.81,2352.82L1022.24,2342.24C1019.37,2339.37 1016.5,2336.51 1013.65,2333.65L1012.08,2332.08C1010.55,2333.84 1008.93,2335.55 1007.24,2337.24C988.275,2356.27 965.358,2365.78 938.487,2365.78C937.671,2365.78 936.858,2365.76 936.042,2365.73L951.667,2346.25C967.883,2343.72 982.083,2336.35 994.271,2324.11C1009.69,2308.76 1017.4,2290.2 1017.4,2268.44C1017.4,2246.67 1009.69,2228.08 994.271,2212.65C990.812,2209.2 987.183,2206.13 983.388,2203.44L988.75,2184.9C995.283,2188.93 1001.45,2193.84 1007.24,2199.63ZM869.633,2199.63C888.667,2180.68 911.621,2171.2 938.487,2171.2C939.396,2171.2 940.3,2171.22 941.2,2171.25L925.729,2190.58C909.404,2193.06 895.1,2200.43 882.813,2212.65C867.458,2228.08 859.787,2246.67 859.792,2268.44C859.787,2290.2 867.458,2308.76 882.813,2324.11C886.367,2327.67 890.083,2330.81 893.958,2333.55L888.542,2352.24C881.867,2348.17 875.562,2343.16 869.633,2337.24C868,2335.6 866.438,2333.94 864.946,2332.24L863.542,2333.65C860.683,2336.51 857.821,2339.37 854.95,2342.24L844.375,2352.82L819.013,2352.82C818.338,2353.91 817.521,2354.95 816.563,2355.94C813.054,2359.35 808.821,2361.05 803.854,2361.04C798.904,2361.05 794.721,2359.35 791.304,2355.94C790.321,2354.95 789.471,2353.91 788.75,2352.82C786.946,2350 786.042,2346.8 786.042,2343.23C786.042,2339.63 786.963,2336.43 788.804,2333.65C789.513,2332.6 790.346,2331.61 791.304,2330.68C794.721,2327.17 798.904,2325.43 803.854,2325.42C808.821,2325.43 813.054,2327.17 816.563,2330.68C817.492,2331.61 818.292,2332.6 818.958,2333.65L836.458,2333.65L853.592,2316.51C846.85,2304.87 842.858,2292.07 841.612,2278.12L781.25,2278.12C780.583,2279.18 779.783,2280.16 778.854,2281.1C775.346,2284.6 771.108,2286.35 766.146,2286.35C761.196,2286.35 757.012,2284.6 753.592,2281.1C752.637,2280.16 751.804,2279.18 751.096,2278.12C749.254,2275.33 748.337,2272.14 748.333,2268.54C748.337,2264.97 749.238,2261.78 751.042,2258.96C751.758,2257.86 752.608,2256.82 753.592,2255.83C757.012,2252.42 761.196,2250.72 766.146,2250.73C771.108,2250.72 775.346,2252.42 778.854,2255.83C779.812,2256.82 780.629,2257.86 781.304,2258.96L841.612,2258.96C842.838,2245 846.813,2232.2 853.542,2220.53L836.458,2203.44L818.958,2203.44C818.292,2204.48 817.492,2205.47 816.563,2206.4C813.054,2209.91 808.821,2211.66 803.854,2211.67C798.904,2211.66 794.721,2209.91 791.304,2206.4C790.346,2205.47 789.513,2204.48 788.804,2203.44C786.963,2200.65 786.042,2197.45 786.042,2193.85C786.042,2190.28 786.946,2187.09 788.75,2184.27C789.471,2183.17 790.321,2182.13 791.304,2181.15C794.721,2177.73 798.904,2176.03 803.854,2176.04C808.821,2176.03 813.054,2177.73 816.563,2181.15C817.521,2182.13 818.338,2183.17 819.013,2184.27L844.375,2184.27L854.95,2194.85C857.821,2197.71 860.683,2200.58 863.542,2203.44L864.846,2204.74C866.371,2203.01 867.971,2201.31 869.633,2199.63ZM965.729,2178.7C966.971,2179.31 967.875,2180.23 968.438,2181.47C968.967,2182.77 969.038,2184.11 968.646,2185.47L949.742,2250.99L991.304,2250.99C992.812,2251.01 994.133,2251.55 995.258,2252.6C996.35,2253.65 996.937,2254.94 997.033,2256.46C997.175,2257.93 996.792,2259.25 995.888,2260.42L918.696,2356.77C917.821,2357.85 916.708,2358.55 915.367,2358.85C914.042,2359.12 912.771,2358.94 911.562,2358.28C910.338,2357.68 909.454,2356.75 908.908,2355.52C908.375,2354.23 908.304,2352.91 908.696,2351.56L927.658,2285.99L885.992,2285.99C884.475,2285.98 883.158,2285.46 882.033,2284.43C880.908,2283.39 880.283,2282.12 880.154,2280.62C880.046,2279.15 880.463,2277.83 881.408,2276.67L958.542,2180.21C959.437,2179.18 960.563,2178.54 961.925,2178.28C963.25,2177.96 964.517,2178.1 965.729,2178.7ZM938.596,2145.83L938.542,2145.83C929.788,2145.82 922.321,2148.91 916.146,2155.1C913.946,2157.3 912.137,2159.67 910.729,2162.2L894.325,2153.23C896.563,2149.21 899.425,2145.44 902.917,2141.93C912.75,2132.07 924.621,2127.15 938.542,2127.14C952.504,2127.15 964.433,2132.07 974.321,2141.93C977.829,2145.45 980.713,2149.23 982.971,2153.28L966.563,2162.24C965.133,2159.7 963.308,2157.32 961.096,2155.1C954.875,2148.92 947.375,2145.82 938.596,2145.83ZM995.154,2146.57C992.263,2141.41 988.563,2136.58 984.063,2132.08C971.487,2119.51 956.312,2113.2 938.542,2113.18C920.779,2113.2 905.625,2119.51 893.071,2132.08C888.612,2136.55 884.95,2141.34 882.083,2146.46L865.729,2137.55C869.437,2130.93 874.175,2124.73 879.95,2118.96C896.117,2102.76 915.65,2094.65 938.542,2094.64C961.437,2094.64 980.987,2102.72 997.187,2118.9C1003.02,2124.71 1007.8,2130.94 1011.56,2137.61L995.154,2146.57Z" style="fill:rgb(0,104,178);"/>
    </g>
</svg>
