<?xml version="1.0" encoding="UTF-8" standalone="no"?>
<!DOCTYPE svg PUBLIC "-//W3C//DTD SVG 1.1//EN" "http://www.w3.org/Graphics/SVG/1.1/DTD/svg11.dtd">
<svg width="100%" height="100%" viewBox="0 0 90 90" version="1.1" xmlns="http://www.w3.org/2000/svg" xmlns:xlink="http://www.w3.org/1999/xlink" xml:space="preserve" xmlns:serif="http://www.serif.com/" style="fill-rule:evenodd;clip-rule:evenodd;stroke-linejoin:round;stroke-miterlimit:2;">
    <g id="iStock-1053003062" transform="matrix(0.150801,0,0,0.150801,-417.838,-297.193)">
        <path d="M3058.08,2202.4C3058.07,2198.47 3059.46,2195.12 3062.24,2192.34C3065.02,2189.56 3068.37,2188.17 3072.29,2188.18L3190,2188.18C3193.94,2188.17 3197.31,2189.56 3200.1,2192.34C3202.89,2195.12 3204.28,2198.47 3204.27,2202.4L3204.27,2420.73C3204.28,2424.65 3202.89,2428 3200.1,2430.78C3197.31,2433.57 3193.94,2434.95 3190,2434.95L3072.29,2434.95C3068.37,2434.95 3065.02,2433.57 3062.24,2430.78C3059.46,2428 3058.07,2424.65 3058.08,2420.73L3058.08,2202.4ZM3105.94,2408.91C3112.05,2415 3119.25,2418.43 3127.55,2419.17C3128.73,2419.27 3129.93,2419.33 3131.15,2419.33L3131.67,2419.33C3132.72,2419.31 3133.76,2419.26 3134.79,2419.17C3143.06,2418.42 3150.25,2415 3156.35,2408.91C3157.47,2407.78 3158.49,2406.62 3159.43,2405.42L3102.87,2405.42C3103.8,2406.62 3104.82,2407.78 3105.94,2408.91ZM2938.28,2107.55C2941.06,2104.77 2944.41,2103.38 2948.33,2103.39L3126.04,2103.39C3129.98,2103.38 3133.35,2104.77 3136.15,2107.55C3138.93,2110.33 3140.32,2113.68 3140.31,2117.6L3140.31,2167.34L3123.02,2167.34L3123.02,2120.62L2951.3,2120.62L2951.3,2343.28L2959.17,2343.28C2960.45,2343.29 2961.73,2343.29 2963.02,2343.28L2966.88,2343.28L2966.88,2343.33L2996.88,2343.33L2996.88,2343.28L3017.08,2343.28C3022.12,2343.29 3027.16,2343.29 3032.19,2343.28C3033.03,2343.29 3033.88,2343.29 3034.74,2343.28L3037.24,2343.28L3037.24,2359.59L3008.91,2359.59C3009.84,2360.78 3010.86,2361.95 3011.98,2363.08C3018.95,2370.04 3027.35,2373.5 3037.19,2373.49L3037.24,2373.49L3037.24,2389.12L2948.33,2389.12C2944.41,2389.12 2941.06,2387.73 2938.28,2384.95C2935.5,2382.17 2934.11,2378.82 2934.12,2374.9L2934.12,2117.6C2934.11,2113.68 2935.5,2110.33 2938.28,2107.55ZM3186.98,2389.12L3186.98,2205.42L3075.26,2205.42L3075.26,2389.12L3186.98,2389.12ZM3114.06,2240.78C3119.22,2243.68 3124.05,2247.38 3128.54,2251.88C3141.12,2264.45 3147.43,2279.62 3147.45,2297.4C3147.43,2315.16 3141.12,2330.31 3128.54,2342.86C3124.08,2347.33 3119.29,2350.99 3114.17,2353.86L3123.07,2370.21C3129.7,2366.5 3135.9,2361.76 3141.67,2355.99C3157.87,2339.82 3165.97,2320.29 3165.99,2297.4C3165.99,2274.5 3157.9,2254.95 3141.72,2238.75C3135.92,2232.93 3129.68,2228.13 3123.02,2224.38L3114.06,2240.78ZM3098.38,2269.38C3100.93,2270.8 3103.3,2272.63 3105.52,2274.85C3111.71,2281.06 3114.8,2288.57 3114.79,2297.35L3114.79,2297.4C3114.8,2306.15 3111.71,2313.62 3105.52,2319.79C3103.32,2322 3100.96,2323.8 3098.44,2325.21L3107.4,2341.62C3111.42,2339.38 3115.19,2336.51 3118.7,2333.03C3128.55,2323.19 3133.48,2311.32 3133.49,2297.4C3133.48,2283.43 3128.55,2271.51 3118.7,2261.61C3115.18,2258.1 3111.39,2255.22 3107.35,2252.97L3098.38,2269.38ZM3024.38,2175.47C3019.22,2178.37 3014.39,2182.06 3009.9,2186.56C2997.31,2199.14 2991.02,2214.32 2990.99,2232.08C2991.02,2249.85 2997.31,2265 3009.9,2277.55C3014.36,2282.02 3019.15,2285.68 3024.27,2288.54L3015.37,2304.9C3008.74,2301.19 3002.54,2296.45 2996.77,2290.68C2980.58,2274.5 2972.47,2254.97 2972.45,2232.08C2972.45,2209.19 2980.54,2189.64 2996.72,2173.44C3002.52,2167.61 3008.75,2162.82 3015.42,2159.07L3024.38,2175.47ZM3040.05,2204.06C3037.51,2205.49 3035.14,2207.32 3032.92,2209.53C3026.73,2215.75 3023.64,2223.25 3023.65,2232.03L3023.65,2232.08C3023.64,2240.84 3026.72,2248.3 3032.92,2254.48C3035.12,2256.68 3037.47,2258.49 3040,2259.9L3031.04,2276.3C3027.02,2274.06 3023.25,2271.2 3019.74,2267.71C3009.89,2257.88 3004.95,2246 3004.95,2232.08C3004.95,2218.12 3009.89,2206.19 3019.74,2196.3C3023.26,2192.8 3027.05,2189.92 3031.1,2187.65L3040.05,2204.06Z" style="fill:rgb(0,104,178);"/>
    </g>
</svg>
