<?xml version="1.0" encoding="UTF-8" standalone="no"?>
<!DOCTYPE svg PUBLIC "-//W3C//DTD SVG 1.1//EN" "http://www.w3.org/Graphics/SVG/1.1/DTD/svg11.dtd">
<svg width="100%" height="100%" viewBox="0 0 90 90" version="1.1" xmlns="http://www.w3.org/2000/svg" xmlns:xlink="http://www.w3.org/1999/xlink" xml:space="preserve" xmlns:serif="http://www.serif.com/" style="fill-rule:evenodd;clip-rule:evenodd;stroke-linejoin:round;stroke-miterlimit:2;">
    <g id="iStock-1053003062" transform="matrix(0.133259,0,0,0.133259,-293.048,-257.242)">
        <path d="M2724.38,2391.46L2635.52,2391.46L2635.52,2317.81L2551.46,2317.81L2551.46,2361.98L2607.6,2371.67L2607.6,2391.46L2465.94,2391.46L2465.94,2371.67L2522.08,2361.98L2522.08,2317.81L2438.02,2317.81L2438.02,2391.46L2349.17,2391.46L2349.17,2247.4L2408.54,2247.4L2408.54,2144.69L2665,2144.69L2665,2247.4L2724.38,2247.4L2724.38,2391.46ZM2393.54,2315L2392.81,2315C2385.21,2315.18 2378.68,2317.98 2373.23,2323.44C2367.6,2329.06 2364.79,2335.83 2364.79,2343.75C2364.79,2351.67 2367.6,2358.44 2373.23,2364.06C2378.68,2369.52 2385.21,2372.33 2392.81,2372.5L2393.54,2372.5C2401.46,2372.5 2408.23,2369.69 2413.85,2364.06C2419.48,2358.44 2422.29,2351.67 2422.29,2343.75C2422.29,2335.83 2419.48,2329.06 2413.85,2323.44C2408.23,2317.81 2401.46,2315 2393.54,2315ZM2708.75,2343.75C2708.75,2335.83 2705.94,2329.06 2700.31,2323.44C2694.86,2317.98 2688.33,2315.18 2680.73,2315L2680,2315C2674.79,2315 2670.06,2316.22 2665.83,2318.65C2663.65,2319.92 2661.6,2321.52 2659.69,2323.44C2654.06,2329.06 2651.25,2335.83 2651.25,2343.75C2651.25,2351.67 2654.06,2358.44 2659.69,2364.06C2661.56,2365.94 2663.56,2367.5 2665.68,2368.75C2669.95,2371.25 2674.72,2372.5 2680,2372.5L2680.73,2372.5C2685.72,2372.39 2690.25,2371.13 2694.33,2368.75C2696.44,2367.5 2698.44,2365.93 2700.31,2364.06C2705.94,2358.44 2708.75,2351.67 2708.75,2343.75ZM2425.73,2161.88L2425.68,2161.82L2425.73,2300.62L2647.81,2300.62L2647.81,2161.88L2425.73,2161.88ZM2680.05,2270.1C2676.1,2270.1 2672.71,2271.51 2669.9,2274.33C2667.08,2277.14 2665.68,2280.52 2665.68,2284.48C2665.68,2288.44 2667.08,2291.82 2669.9,2294.64C2672.71,2297.45 2676.1,2298.85 2680.05,2298.85L2680.73,2298.85C2684.4,2298.69 2687.56,2297.29 2690.21,2294.64C2693.02,2291.82 2694.43,2288.44 2694.43,2284.48C2694.43,2280.52 2693.02,2277.14 2690.21,2274.33C2687.56,2271.67 2684.4,2270.26 2680.73,2270.1L2680.05,2270.1ZM2393.49,2270.1L2392.81,2270.1C2389.15,2270.26 2385.98,2271.67 2383.33,2274.33C2380.52,2277.14 2379.11,2280.52 2379.11,2284.48C2379.11,2288.44 2380.52,2291.82 2383.33,2294.64C2385.98,2297.29 2389.15,2298.69 2392.81,2298.85L2393.49,2298.85C2397.45,2298.85 2400.83,2297.45 2403.65,2294.64C2406.46,2291.82 2407.87,2288.44 2407.87,2284.48C2407.87,2280.52 2406.46,2277.14 2403.65,2274.33C2400.83,2271.51 2397.45,2270.1 2393.49,2270.1ZM2564.69,2265.05C2563.26,2262.51 2561.43,2260.13 2559.22,2257.92C2553,2251.73 2545.5,2248.64 2536.72,2248.65L2536.67,2248.65C2527.91,2248.63 2520.45,2251.72 2514.27,2257.92C2512.07,2260.12 2510.26,2262.47 2508.85,2265L2492.45,2256.04C2494.69,2252.02 2497.55,2248.25 2501.04,2244.74C2510.87,2234.89 2522.75,2229.95 2536.67,2229.95C2550.63,2229.95 2562.56,2234.89 2572.45,2244.74C2575.95,2248.26 2578.84,2252.05 2581.1,2256.1L2564.69,2265.05ZM2593.28,2249.38C2590.38,2244.22 2586.69,2239.39 2582.19,2234.9C2569.61,2222.31 2554.43,2216.02 2536.67,2215.99C2518.9,2216.02 2503.75,2222.31 2491.2,2234.9C2486.73,2239.35 2483.08,2244.15 2480.21,2249.27L2463.85,2240.37C2467.56,2233.74 2472.3,2227.54 2478.07,2221.77C2494.25,2205.58 2513.78,2197.47 2536.67,2197.45C2559.56,2197.45 2579.11,2205.54 2595.31,2221.72C2601.14,2227.52 2605.93,2233.75 2609.69,2240.42L2593.28,2249.38Z" style="fill:rgb(0,104,178);"/>
    </g>
</svg>
