<?xml version="1.0" encoding="UTF-8" standalone="no"?>
<!DOCTYPE svg PUBLIC "-//W3C//DTD SVG 1.1//EN" "http://www.w3.org/Graphics/SVG/1.1/DTD/svg11.dtd">
<svg width="100%" height="100%" viewBox="0 0 90 90" version="1.1" xmlns="http://www.w3.org/2000/svg" xmlns:xlink="http://www.w3.org/1999/xlink" xml:space="preserve" xmlns:serif="http://www.serif.com/" style="fill-rule:evenodd;clip-rule:evenodd;stroke-linejoin:round;stroke-miterlimit:2;">
    <g id="iStock-948456596" transform="matrix(0.221066,0,0,0.221066,-95.7074,-338.211)">
        <path d="M538.696,1758.46L555.621,1650.83C555.846,1649.39 557.917,1647.62 559.379,1647.62L713.621,1647.62C715.079,1647.62 717.154,1649.39 717.379,1650.83L734.288,1758.47L538.696,1758.46ZM749.392,1757.59L732.25,1648.5C730.875,1639.73 722.492,1632.57 713.621,1632.57L559.379,1632.57C550.508,1632.57 542.125,1639.73 540.75,1648.5L523.6,1757.59C522.225,1766.35 528.354,1773.52 537.221,1773.52L735.767,1773.52C744.633,1773.52 750.767,1766.35 749.392,1757.59ZM598.812,1703.25L564.154,1703.25C561.933,1703.25 559.879,1705.05 559.596,1707.25L555.242,1740.75C554.954,1742.95 556.538,1744.75 558.758,1744.75L596.65,1744.75C598.871,1744.75 600.779,1742.93 600.896,1740.72L602.637,1707.28C602.754,1705.07 601.029,1703.25 598.812,1703.25ZM708.817,1703.25L674.146,1703.25C671.929,1703.25 670.208,1705.07 670.325,1707.28L672.083,1740.72C672.196,1742.93 674.108,1744.75 676.329,1744.75L714.233,1744.75C716.45,1744.75 718.033,1742.95 717.746,1740.75L713.375,1707.25C713.088,1705.05 711.038,1703.25 708.817,1703.25ZM655.475,1703.25L617.504,1703.25C615.283,1703.25 613.396,1705.07 613.308,1707.29L611.996,1740.72C611.908,1742.93 613.654,1744.75 615.875,1744.75L657.129,1744.75C659.354,1744.75 661.096,1742.93 661.004,1740.72L659.671,1707.29C659.583,1705.07 657.692,1703.25 655.475,1703.25ZM601.325,1657.42L570.521,1657.42C568.3,1657.42 566.267,1659.23 566.004,1661.43L562.475,1690.94C562.208,1693.15 563.813,1694.95 566.029,1694.95L599.55,1694.95C601.767,1694.95 603.671,1693.14 603.775,1690.92L605.171,1661.45C605.275,1659.23 603.542,1657.42 601.325,1657.42ZM673.429,1694.95L706.933,1694.95C709.154,1694.95 710.754,1693.15 710.487,1690.94L706.933,1661.43C706.671,1659.23 704.638,1657.42 702.417,1657.42L671.617,1657.42C669.396,1657.42 667.667,1659.23 667.775,1661.45L669.2,1690.92C669.308,1693.14 671.213,1694.95 673.429,1694.95ZM618.05,1694.95L654.917,1694.95C657.133,1694.95 658.883,1693.13 658.804,1690.92L657.733,1661.45C657.65,1659.23 655.771,1657.42 653.55,1657.42L619.404,1657.42C617.183,1657.42 615.3,1659.23 615.221,1661.45L614.158,1690.92C614.075,1693.13 615.829,1694.95 618.05,1694.95ZM662.538,1812.56C661.017,1812.41 659.404,1812.28 657.767,1812.16L657.767,1781.8L615.233,1781.8L615.233,1812.19C613.596,1812.32 611.983,1812.45 610.458,1812.6C575.179,1816.06 575.929,1831.08 575.929,1834.38L697.071,1834.38C697.071,1830.67 697.821,1815.9 662.538,1812.56Z" style="fill:rgb(0,104,178);fill-rule:nonzero;"/>
    </g>
</svg>
