<?xml version="1.0" encoding="UTF-8" standalone="no"?>
<!DOCTYPE svg PUBLIC "-//W3C//DTD SVG 1.1//EN" "http://www.w3.org/Graphics/SVG/1.1/DTD/svg11.dtd">
<svg width="100%" height="100%" viewBox="0 0 90 90" version="1.1" xmlns="http://www.w3.org/2000/svg" xmlns:xlink="http://www.w3.org/1999/xlink" xml:space="preserve" xmlns:serif="http://www.serif.com/" style="fill-rule:evenodd;clip-rule:evenodd;stroke-linejoin:round;stroke-miterlimit:2;">
    <g id="iStock-1053003062" transform="matrix(0.163932,0,0,0.163932,-21.5971,-123.628)">
        <path d="M376.979,1010.05C376.963,1003.79 378.65,998.237 382.029,993.387L382.083,993.333C383.062,991.938 384.192,990.6 385.467,989.325L385.571,989.271C391.287,983.542 398.196,980.675 406.3,980.675C414.421,980.675 421.354,983.542 427.083,989.271L427.138,989.325C428.417,990.6 429.546,991.938 430.521,993.333L430.571,993.387C433.983,998.229 435.683,1003.78 435.679,1010.05L435.679,1010.16C435.658,1018.24 432.796,1025.13 427.083,1030.83L427.029,1030.94C424.487,1033.46 421.708,1035.42 418.696,1036.83L452.396,1155.05L360.258,1155.05L393.954,1036.83C390.937,1035.42 388.158,1033.44 385.621,1030.89L385.571,1030.83C379.867,1025.14 377.004,1018.27 376.979,1010.21L376.979,1010.05ZM323.333,927.242C303.279,947.287 291.996,970.967 289.479,998.283C289.142,1002.18 288.988,1006.15 289.008,1010.21C289,1042.57 300.425,1070.21 323.279,1093.12L323.279,1093.17L298.333,1118.12L298.279,1118.08C268.567,1088.29 253.721,1052.34 253.746,1010.21C253.746,1003 254.179,995.963 255.05,989.117C259.25,955.892 273.696,926.933 298.383,902.242L323.333,927.242ZM523.596,1010.21L523.596,1010.16C523.596,994.587 520.954,980.108 515.679,966.721C509.967,952.279 501.179,939.121 489.325,927.242L514.221,902.292C532.696,920.792 545.421,941.679 552.396,964.95C556.642,979.133 558.762,994.2 558.75,1010.16L558.75,1010.21C558.771,1033.51 554.242,1054.92 545.154,1074.42C537.812,1090.21 527.5,1104.76 514.221,1118.08L489.271,1093.12C498.379,1084.01 505.671,1074.15 511.146,1063.54C519.454,1047.47 523.604,1029.7 523.596,1010.21ZM365.883,969.737C358.904,976.713 354.112,984.596 351.508,993.387C349.975,998.621 349.212,1004.18 349.217,1010.05L349.217,1010.21C349.208,1011.95 349.279,1013.68 349.425,1015.37L349.425,1015.42C350.537,1028.91 356.025,1040.6 365.883,1050.47L365.937,1050.52L340.937,1075.47L340.883,1075.47C322.908,1057.46 313.912,1035.7 313.904,1010.21L313.904,1010.05C313.904,1008.91 313.921,1007.78 313.958,1006.67C314.096,1002.12 314.529,997.688 315.258,993.387C318.392,974.929 326.929,958.733 340.883,944.792L365.883,969.737ZM486.875,964.429C492.067,973.367 495.554,983.021 497.342,993.387C498.246,998.75 498.696,1004.31 498.7,1010.05L498.7,1010.16C498.675,1027.64 494.438,1043.37 485.992,1057.35C482.079,1063.75 477.292,1069.79 471.617,1075.47L471.617,1075.42L471.563,1075.47L446.667,1050.52C448.279,1048.84 449.775,1047.12 451.146,1045.37C459.267,1035.3 463.346,1023.56 463.383,1010.16L463.383,1010.05C463.375,1004.18 462.592,998.621 461.042,993.387C458.421,984.633 453.633,976.783 446.667,969.846L471.667,944.792L471.875,945C477.867,951.05 482.85,957.529 486.821,964.429L486.875,964.429Z" style="fill:rgb(0,104,178);"/>
    </g>
</svg>
