<?xml version="1.0" encoding="UTF-8" standalone="no"?>
<!DOCTYPE svg PUBLIC "-//W3C//DTD SVG 1.1//EN" "http://www.w3.org/Graphics/SVG/1.1/DTD/svg11.dtd">
<svg width="100%" height="100%" viewBox="0 0 80 80" version="1.1" xmlns="http://www.w3.org/2000/svg" xmlns:xlink="http://www.w3.org/1999/xlink" xml:space="preserve" xmlns:serif="http://www.serif.com/" style="fill-rule:evenodd;clip-rule:evenodd;stroke-linejoin:round;stroke-miterlimit:2;">
    <g id="iStock-1252658080" transform="matrix(1,0,0,1,-196,-196)">
        <path d="M219,222L229,222C229.552,222 230,221.552 230,221C230,220.448 229.552,220 229,220L219,220C218.448,220 218,220.448 218,221C218,221.552 218.448,222 219,222ZM219,218L233,218C233.552,218 234,217.552 234,217C234,216.448 233.552,216 233,216L219,216C218.448,216 218,216.448 218,217C218,217.552 218.448,218 219,218ZM218,249L218,253C218,253.552 218.448,254 219,254C219.552,254 220,253.552 220,253L220,249C220,248.448 219.552,248 219,248C218.448,248 218,248.448 218,249ZM224,245L224,253C224,253.552 224.448,254 225,254C225.552,254 226,253.552 226,253L226,245C226,244.448 225.552,244 225,244C224.448,244 224,244.448 224,245ZM230,241L230,253C230,253.552 230.448,254 231,254C231.552,254 232,253.552 232,253L232,241C232,240.448 231.552,240 231,240C230.448,240 230,240.448 230,241ZM236,244L236,253C236,253.552 236.448,254 237,254C237.552,254 238,253.552 238,253L238,244C238,243.448 237.552,243 237,243C236.448,243 236,243.448 236,244ZM242,239L242,253C242,253.552 242.448,254 243,254C243.552,254 244,253.552 244,253L244,239C244,238.448 243.552,238 243,238C242.448,238 242,238.448 242,239ZM248,240L248,253C248,253.552 248.448,254 249,254C249.552,254 250,253.552 250,253L250,240C250,239.448 249.552,239 249,239C248.448,239 248,239.448 248,240ZM261,234C260.448,234 260,234.448 260,235L260,253C260,253.552 260.448,254 261,254C261.552,254 262,253.552 262,253L262,235C262,234.448 261.552,234 261,234ZM254,235L254,253C254,253.552 254.448,254 255,254C255.552,254 256,253.552 256,253L256,235C256,234.448 255.552,234 255,234C254.448,234 254,234.448 254,235ZM261,256L214,256L214,215C214,214.448 213.552,214 213,214C212.448,214 212,214.448 212,215L212,220L209,220C208.448,220 208,220.448 208,221C208,221.552 208.448,222 209,222L212,222L212,226L209,226C208.448,226 208,226.448 208,227C208,227.552 208.448,228 209,228L212,228L212,232L209,232C208.448,232 208,232.448 208,233C208,233.552 208.448,234 209,234L212,234L212,238L209,238C208.448,238 208,238.448 208,239C208,239.552 208.448,240 209,240L212,240L212,244L209,244C208.448,244 208,244.448 208,245C208,245.552 208.448,246 209,246L212,246L212,250L209,250C208.448,250 208,250.448 208,251C208,251.552 208.448,252 209,252L212,252L212,257C212,257.552 212.448,258 213,258L261,258C261.552,258 262,257.552 262,257C262,256.448 261.552,256 261,256ZM217.707,239.707L230,227.414L235.293,232.707C235.684,233.098 236.316,233.098 236.707,232.707L244,225.414L247.293,228.707C247.684,229.098 248.316,229.098 248.707,228.707L253.707,223.707C254.098,223.316 254.098,222.684 253.707,222.293L251.121,219.707L261.821,218.179L260.293,228.879L257.707,226.293C257.316,225.902 256.683,225.902 256.293,226.293L248,234.586L244.707,231.293C244.316,230.902 243.684,230.902 243.293,231.293L236,238.586L230.707,233.293C230.316,232.902 229.684,232.902 229.293,233.293L218.293,244.293C217.902,244.684 217.902,245.316 218.293,245.707C218.488,245.902 218.744,246 219,246C219.256,246 219.512,245.902 219.707,245.707L230,235.414L235.293,240.707C235.684,241.098 236.316,241.098 236.707,240.707L244,233.414L247.293,236.707C247.684,237.098 248.316,237.098 248.707,236.707L257,228.414L260.293,231.707C260.561,231.975 260.954,232.068 261.316,231.949C261.676,231.829 261.937,231.517 261.989,231.142L263.99,217.142C264.035,216.83 263.93,216.516 263.707,216.293C263.484,216.07 263.171,215.964 262.858,216.01L248.858,218.01C248.483,218.063 248.171,218.324 248.051,218.684C247.932,219.043 248.025,219.439 248.293,219.707L251.586,223L248,226.586L244.707,223.293C244.316,222.902 243.684,222.902 243.293,223.293L236,230.586L230.707,225.293C230.316,224.902 229.684,224.902 229.293,225.293L216.293,238.293C215.902,238.684 215.902,239.316 216.293,239.707C216.684,240.098 217.316,240.098 217.707,239.707Z" style="fill:rgb(54,110,150);fill-rule:nonzero;"/>
    </g>
</svg>
