<?xml version="1.0" encoding="UTF-8" standalone="no"?>
<!DOCTYPE svg PUBLIC "-//W3C//DTD SVG 1.1//EN" "http://www.w3.org/Graphics/SVG/1.1/DTD/svg11.dtd">
<svg width="100%" height="100%" viewBox="0 0 80 80" version="1.1" xmlns="http://www.w3.org/2000/svg" xmlns:xlink="http://www.w3.org/1999/xlink" xml:space="preserve" xmlns:serif="http://www.serif.com/" style="fill-rule:evenodd;clip-rule:evenodd;stroke-linejoin:round;stroke-miterlimit:2;">
    <g id="iStock-1252658080" transform="matrix(1,0,0,1,-112,-280)">
        <path d="M177,332L175,332C174.449,332 174,331.552 174,331C174,330.448 174.449,330 175,330L179,330C179.552,330 180,329.553 180,329C180,328.447 179.552,328 179,328L177,328L177,327C177,326.447 176.552,326 176,326C175.448,326 175,326.447 175,327L175,328C173.346,328 172,329.346 172,331C172,332.654 173.346,334 175,334L177,334C177.551,334 178,334.448 178,335C178,335.552 177.551,336 177,336L173,336C172.448,336 172,336.447 172,337C172,337.553 172.448,338 173,338L175,338L175,339C175,339.553 175.448,340 176,340C176.552,340 177,339.553 177,339L177,338C178.654,338 180,336.654 180,335C180,333.346 178.654,332 177,332ZM141.824,307.941C142.08,307.941 142.336,307.844 142.531,307.648C142.921,307.258 142.921,306.624 142.531,306.234L141.766,305.47C141.375,305.079 140.742,305.079 140.351,305.47C139.961,305.86 139.961,306.494 140.352,306.884L141.117,307.648C141.312,307.844 141.568,307.941 141.824,307.941ZM162,342L158,342L158,322L162,322L162,342ZM163,320L157,320C156.448,320 156,320.447 156,321L156,343C156,343.553 156.448,344 157,344L163,344C163.552,344 164,343.553 164,343L164,321C164,320.447 163.552,320 163,320ZM173,342L168,342L168,311C168,310.447 167.552,310 167,310L164.92,310L170,302.744L175.08,310L173,310C172.448,310 172,310.447 172,311L172,323C172,323.553 172.448,324 173,324C173.552,324 174,323.553 174,323L174,312L177,312C177.373,312 177.715,311.793 177.887,311.462C178.059,311.131 178.033,310.732 177.819,310.427L170.819,300.427C170.445,299.892 169.555,299.892 169.181,300.427L162.181,310.427C161.967,310.732 161.941,311.131 162.113,311.462C162.285,311.793 162.627,312 163,312L166,312L166,343C166,343.553 166.448,344 167,344L173,344C173.552,344 174,343.553 174,343C174,342.447 173.552,342 173,342ZM152,342L148,342L148,330L152,330L152,342ZM153,328L147.915,328C147.466,325.187 145.19,323.022 142.977,320.923C141.593,319.611 140.251,318.339 139.31,316.94C139.534,316.979 139.765,317 140,317L141.892,317C142.436,317 142.969,317.147 143.436,317.428L147.485,319.857C147.872,320.088 148.364,320.034 148.689,319.725L150.239,318.248C151.183,317.521 151.791,316.471 151.955,315.285C152.122,314.076 151.807,312.876 151.065,311.905C147.013,306.602 144.682,303.491 143.801,302.309L146.843,297.537C147.04,297.229 147.052,296.839 146.877,296.52C146.701,296.199 146.365,296 146,296L139,296C130.729,296 124,302.729 124,310.999L124,329C124,329.234 124.082,329.461 124.232,329.641L128.119,334.306C125.73,335.098 124,337.349 124,340L124,342C124,343.103 124.897,344 126,344L133,344C133.552,344 134,343.553 134,343C134,342.447 133.552,342 133,342L126,342L126,340C126,337.794 127.794,336 130,336L133,336C133.552,336 134,335.553 134,335C134,334.447 133.552,334 133,334L130.468,334L126,328.638L126,310.999C126,303.831 131.832,298 139,298L144.177,298L141.745,301.815C141.522,302.164 141.538,302.613 141.784,302.946C141.807,302.979 144.169,306.174 149.476,313.119C149.891,313.662 150.067,314.334 149.974,315.012C149.881,315.685 149.531,316.28 148.989,316.687C148.958,316.71 148.928,316.735 148.9,316.762L147.862,317.751L144.465,315.713C143.688,315.246 142.798,315 141.892,315L140,315C138.897,315 138,314.103 138,313C138,312.447 137.552,312 137,312C136.448,312 136,312.447 136,313C136,317.064 138.976,319.886 141.601,322.375C143.863,324.52 146,326.546 146,329L146,343C146,343.553 146.448,344 147,344L153,344C153.552,344 154,343.553 154,343L154,329C154,328.447 153.552,328 153,328ZM142,342L138,342L138,336L142,336L142,342ZM143,334L137,334C136.448,334 136,334.447 136,335L136,343C136,343.553 136.448,344 137,344L143,344C143.552,344 144,343.553 144,343L144,335C144,334.447 143.552,334 143,334Z" style="fill:rgb(77,179,178);fill-rule:nonzero;"/>
    </g>
</svg>
