<?xml version="1.0" encoding="UTF-8" standalone="no"?>
<!DOCTYPE svg PUBLIC "-//W3C//DTD SVG 1.1//EN" "http://www.w3.org/Graphics/SVG/1.1/DTD/svg11.dtd">
<svg width="100%" height="100%" viewBox="0 0 80 80" version="1.1" xmlns="http://www.w3.org/2000/svg" xmlns:xlink="http://www.w3.org/1999/xlink" xml:space="preserve" xmlns:serif="http://www.serif.com/" style="fill-rule:evenodd;clip-rule:evenodd;stroke-linejoin:round;stroke-miterlimit:2;">
    <g id="iStock-1252658080" transform="matrix(1,0,0,1,-364,-280)">
        <path d="M416,306L416,297.414L424.586,306L416,306ZM427.923,306.615C427.871,306.493 427.798,306.384 427.706,306.292L415.708,294.294C415.616,294.202 415.507,294.129 415.385,294.077C415.264,294.027 415.134,294 415,294L390,294C388.897,294 388,294.897 388,296L388,303C388,303.553 388.447,304 389,304C389.553,304 390,303.553 390,303L390,296L414,296L414,306C414,307.103 414.897,308 416,308L426,308L426,344L390,344L390,339C390,338.447 389.553,338 389,338C388.447,338 388,338.447 388,339L388,344C388,345.103 388.897,346 390,346L426,346C427.103,346 428,345.103 428,344L428,307C428,306.866 427.973,306.736 427.923,306.615ZM386,331.586L386,314L390,314L390,331.586L388,333.586L386,331.586ZM386,308.52C387.187,307.819 388.882,307.831 390,308.52L390,312L386,312L386,308.52ZM388.707,335.707L391.707,332.707C391.895,332.52 392,332.266 392,332L392,308.52C392,307.831 391.655,307.19 391.101,306.85C389.274,305.725 386.725,305.725 384.9,306.85L384.899,306.85C384.345,307.191 384,307.831 384,308.52L384,312L383,312C381.346,312 380,313.346 380,315L380,321C380,321.553 380.447,322 381,322C381.553,322 382,321.553 382,321L382,315C382,314.448 382.448,314 383,314L384,314L384,332C384,332.266 384.105,332.52 384.293,332.707L387.293,335.707C387.488,335.902 387.744,336 388,336C388.256,336 388.512,335.902 388.707,335.707ZM417,332L421,332C421.553,332 422,331.553 422,331C422,330.447 421.553,330 421,330L419,330L419,329C419,328.447 418.553,328 418,328C417.447,328 417,328.447 417,329L417,330C415.346,330 414,331.346 414,333C414,334.654 415.346,336 417,336L419,336C419.552,336 420,336.448 420,337C420,337.552 419.552,338 419,338L415,338C414.447,338 414,338.447 414,339C414,339.553 414.447,340 415,340L417,340L417,341C417,341.553 417.447,342 418,342C418.553,342 419,341.553 419,341L419,340C420.654,340 422,338.654 422,337C422,335.346 420.654,334 419,334L417,334C416.448,334 416,333.552 416,333C416,332.448 416.448,332 417,332ZM395,338L403,338C403.553,338 404,337.553 404,337C404,336.447 403.553,336 403,336L395,336C394.447,336 394,336.447 394,337C394,337.553 394.447,338 395,338ZM395,334L405,334C405.553,334 406,333.553 406,333C406,332.447 405.553,332 405,332L395,332C394.447,332 394,332.447 394,333C394,333.553 394.447,334 395,334ZM411,308C411.553,308 412,307.553 412,307C412,306.447 411.553,306 411,306L401,306C400.447,306 400,306.447 400,307C400,307.553 400.447,308 401,308L411,308ZM412,318L396,318L396,314L412,314L412,318ZM414,320L420,320L420,324L414,324L414,320ZM414,314L420,314L420,318L414,318L414,314ZM412,324L396,324L396,320L412,320L412,324ZM394,314L394,324C394,325.103 394.897,326 396,326L420,326C421.103,326 422,325.103 422,324L422,314C422,312.897 421.103,312 420,312L396,312C394.897,312 394,312.897 394,314Z" style="fill:rgb(247,148,61);fill-rule:nonzero;"/>
    </g>
</svg>
