<?xml version="1.0" encoding="UTF-8" standalone="no"?>
<!DOCTYPE svg PUBLIC "-//W3C//DTD SVG 1.1//EN" "http://www.w3.org/Graphics/SVG/1.1/DTD/svg11.dtd">
<svg width="100%" height="100%" viewBox="0 0 52 56" version="1.1" xmlns="http://www.w3.org/2000/svg" xmlns:xlink="http://www.w3.org/1999/xlink" xml:space="preserve" xmlns:serif="http://www.serif.com/" style="fill-rule:evenodd;clip-rule:evenodd;stroke-linejoin:round;stroke-miterlimit:2;">
    <g transform="matrix(1,0,0,1,-629,-1142)">
        <g transform="matrix(1,0,0,1,-340,-165)">
            <g id="iStock-1252658080" transform="matrix(1,0,0,1,675,847)">
                <path d="M302,498L306,498C306.553,498 307,497.553 307,497C307,496.447 306.553,496 306,496L304,496L304,495C304,494.447 303.553,494 303,494C302.447,494 302,494.447 302,495L302,496C300.346,496 299,497.346 299,499C299,500.654 300.346,502 302,502L304,502C304.552,502 305,502.448 305,503C305,503.552 304.552,504 304,504L300,504C299.447,504 299,504.447 299,505C299,505.553 299.447,506 300,506L302,506L302,507C302,507.553 302.447,508 303,508C303.553,508 304,507.553 304,507L304,506C305.654,506 307,504.654 307,503C307,501.346 305.654,500 304,500L302,500C301.448,500 301,499.552 301,499C301,498.448 301.448,498 302,498ZM334,502L338,502C338.553,502 339,501.553 339,501C339,500.447 338.553,500 338,500L336,500L336,499C336,498.447 335.553,498 335,498C334.447,498 334,498.447 334,499L334,500C332.346,500 331,501.346 331,503C331,504.654 332.346,506 334,506L336,506C336.552,506 337,506.448 337,507C337,507.552 336.552,508 336,508L332,508C331.447,508 331,508.447 331,509C331,509.553 331.447,510 332,510L334,510L334,511C334,511.553 334.447,512 335,512C335.553,512 336,511.553 336,511L336,510C337.654,510 339,508.654 339,507C339,505.346 337.654,504 336,504L334,504C333.448,504 333,503.552 333,503C333,502.448 333.448,502 334,502ZM337,486C334.462,486 332.027,486.931 329.957,488.649C329.649,477.486 327.184,469.927 324.146,466.365C334.954,468.257 343.3,477.395 343.958,488.572C341.906,486.899 339.502,486 337,486ZM320,486C317.102,486 314.305,486.964 312.037,488.694C312.449,475.209 316.417,466 320,466C323.583,466 327.551,475.209 327.963,488.694C325.695,486.964 322.898,486 320,486ZM321,509C321,511.757 318.757,514 316,514C313.243,514 311,511.757 311,509C311,508.448 311.448,508 312,508C312.552,508 313,508.448 313,509C313,510.654 314.346,512 316,512C317.654,512 319,510.654 319,509L319,502L321,502L321,509ZM310.043,488.649C307.973,486.931 305.538,486 303,486C300.498,486 298.094,486.899 296.042,488.572C296.7,477.395 305.046,468.257 315.854,466.365C312.816,469.927 310.351,477.486 310.043,488.649ZM321,464.025L321,461C321,460.447 320.553,460 320,460C319.447,460 319,460.447 319,461L319,464.025C305.125,464.554 294,475.998 294,490L294,491C294,491.42 294.263,491.795 294.656,491.939C295.051,492.084 295.493,491.967 295.764,491.646C297.748,489.295 300.318,488 303,488C305.682,488 308.252,489.295 310.236,491.646C310.245,491.655 310.258,491.659 310.267,491.669C310.329,491.737 310.404,491.787 310.482,491.835C310.521,491.858 310.551,491.891 310.591,491.908C310.682,491.949 310.782,491.965 310.885,491.977C310.919,491.98 310.949,491.999 310.984,492C310.987,492 310.989,491.998 310.992,491.998C310.995,491.998 310.997,492 311,492C311.106,492 311.203,491.971 311.3,491.939C311.369,491.917 311.432,491.889 311.495,491.851C311.577,491.802 311.658,491.753 311.724,491.684C311.729,491.678 311.737,491.675 311.743,491.669C313.619,489.586 316.223,488.305 319,488.053L319,500C317.897,500 317,500.897 317,502L317,509C317,509.552 316.552,510 316,510C315.448,510 315,509.552 315,509C315,507.346 313.654,506 312,506C310.346,506 309,507.346 309,509C309,512.859 312.141,516 316,516C319.859,516 323,512.859 323,509L323,502C323,500.897 322.103,500 321,500L321,488.053C323.777,488.305 326.381,489.586 328.257,491.669C328.265,491.678 328.274,491.684 328.282,491.692C328.294,491.704 328.307,491.713 328.318,491.725C328.502,491.899 328.747,492.011 328.994,491.999C328.996,491.999 328.998,492 329,492C329.001,492 329.002,491.999 329.004,491.999C329.008,491.999 329.012,492 329.016,492C329.051,491.999 329.081,491.98 329.115,491.977C329.218,491.965 329.318,491.949 329.409,491.908C329.449,491.891 329.479,491.858 329.517,491.836C329.596,491.787 329.671,491.737 329.733,491.669C329.742,491.659 329.755,491.655 329.764,491.646C331.748,489.295 334.318,488 337,488C339.682,488 342.252,489.295 344.236,491.646C344.43,491.875 344.711,492 345,492C345.115,492 345.231,491.98 345.344,491.939C345.737,491.795 346,491.42 346,491L346,490C346,475.998 334.875,464.554 321,464.025Z" style="fill:rgb(54,110,150);fill-rule:nonzero;"/>
            </g>
        </g>
    </g>
</svg>
