<?xml version="1.0" encoding="UTF-8" standalone="no"?>
<!DOCTYPE svg PUBLIC "-//W3C//DTD SVG 1.1//EN" "http://www.w3.org/Graphics/SVG/1.1/DTD/svg11.dtd">
<svg width="100%" height="100%" viewBox="0 0 53 48" version="1.1" xmlns="http://www.w3.org/2000/svg" xmlns:xlink="http://www.w3.org/1999/xlink" xml:space="preserve" xmlns:serif="http://www.serif.com/" style="fill-rule:evenodd;clip-rule:evenodd;stroke-linejoin:round;stroke-miterlimit:2;">
    <g transform="matrix(1,0,0,1,-934,-1142.38)">
        <g transform="matrix(1,0,0,1,-340,-165)">
            <g id="iStock-1252658080" transform="matrix(1,0,0,1,812,1011.38)">
                <path d="M468,312.948C468.537,313.747 469.253,314.463 470.052,315C469.253,315.537 468.537,316.253 468,317.052C467.463,316.253 466.747,315.537 465.948,315C466.747,314.463 467.463,313.747 468,312.948ZM463,316C464.757,316 467,318.243 467,320C467,320.553 467.447,321 468,321C468.553,321 469,320.553 469,320C469,318.243 471.243,316 473,316C473.553,316 474,315.553 474,315C474,314.447 473.553,314 473,314C471.243,314 469,311.757 469,310C469,309.447 468.553,309 468,309C467.447,309 467,309.447 467,310C467,311.757 464.757,314 463,314C462.447,314 462,314.447 462,315C462,315.553 462.447,316 463,316ZM488,299.948C488.537,300.747 489.253,301.463 490.052,302C489.253,302.537 488.537,303.253 488,304.052C487.463,303.253 486.747,302.537 485.948,302C486.747,301.463 487.463,300.747 488,299.948ZM483,303C484.757,303 487,305.243 487,307C487,307.553 487.447,308 488,308C488.553,308 489,307.553 489,307C489,305.243 491.243,303 493,303C493.553,303 494,302.553 494,302C494,301.447 493.553,301 493,301C491.243,301 489,298.757 489,297C489,296.447 488.553,296 488,296C487.447,296 487,296.447 487,297C487,298.757 484.757,301 483,301C482.447,301 482,301.447 482,302C482,302.553 482.447,303 483,303ZM508,315.948C508.537,316.747 509.253,317.463 510.052,318C509.253,318.537 508.537,319.253 508,320.052C507.463,319.253 506.747,318.537 505.948,318C506.747,317.463 507.463,316.747 508,315.948ZM503,319C504.757,319 507,321.243 507,323C507,323.553 507.447,324 508,324C508.553,324 509,323.553 509,323C509,321.243 511.243,319 513,319C513.552,319 514,318.553 514,318C514,317.447 513.552,317 513,317C511.243,317 509,314.757 509,313C509,312.447 508.553,312 508,312C507.447,312 507,312.447 507,313C507,314.757 504.757,317 503,317C502.447,317 502,317.447 502,318C502,318.553 502.447,319 503,319ZM488,314L484.701,314C483.369,314 482.183,314.895 481.816,316.175L481.373,317.725C481.222,318.256 481.529,318.81 482.06,318.962C482.151,318.987 482.244,319 482.336,319C482.771,319 483.171,318.714 483.297,318.275L483.74,316.725C483.861,316.298 484.257,316 484.701,316L488,316C488.553,316 489,315.553 489,315C489,314.447 488.553,314 488,314ZM480.724,312.725C480.845,312.298 481.24,312 481.685,312L494.315,312C494.76,312 495.155,312.298 495.276,312.725L498.501,324L477.502,324L480.724,312.725ZM477.502,326L498.498,326C499.132,326 499.714,325.71 500.096,325.204C500.477,324.698 500.596,324.06 500.422,323.451L497.2,312.176C496.834,310.895 495.647,310 494.315,310L481.685,310C480.353,310 479.166,310.895 478.8,312.176L475.578,323.45C475.404,324.06 475.523,324.698 475.904,325.204C476.286,325.71 476.868,326 477.502,326ZM501.5,332L498.201,332C496.869,332 495.683,332.895 495.316,334.175L494.873,335.725C494.722,336.256 495.029,336.81 495.56,336.962C495.651,336.987 495.744,337 495.836,337C496.271,337 496.671,336.714 496.797,336.275L497.24,334.725C497.361,334.298 497.757,334 498.201,334L501.5,334C502.053,334 502.5,333.553 502.5,333C502.5,332.447 502.053,332 501.5,332ZM491.002,342L494.224,330.725C494.345,330.298 494.74,330 495.185,330L507.815,330C508.26,330 508.655,330.298 508.776,330.725L512,342L491.002,342ZM510.7,330.176C510.334,328.895 509.147,328 507.815,328L495.185,328C493.853,328 492.666,328.895 492.3,330.176L489.078,341.45C488.904,342.06 489.023,342.698 489.404,343.204C489.786,343.71 490.368,344 491.002,344L511.998,344C512.632,344 513.214,343.71 513.596,343.204C513.977,342.698 514.096,342.06 513.922,341.451L510.7,330.176ZM474.5,332L471.201,332C469.869,332 468.683,332.895 468.316,334.175L467.873,335.725C467.722,336.256 468.029,336.81 468.56,336.962C468.651,336.987 468.744,337 468.836,337C469.271,337 469.671,336.714 469.797,336.275L470.24,334.725C470.361,334.298 470.757,334 471.201,334L474.5,334C475.053,334 475.5,333.553 475.5,333C475.5,332.447 475.053,332 474.5,332ZM464.002,342L467.224,330.725C467.345,330.298 467.74,330 468.185,330L480.815,330C481.26,330 481.655,330.298 481.776,330.725L485.001,342L464.002,342ZM483.7,330.176C483.334,328.895 482.147,328 480.815,328L468.185,328C466.853,328 465.666,328.895 465.3,330.176L462.078,341.45C461.904,342.06 462.023,342.698 462.404,343.204C462.786,343.71 463.368,344 464.002,344L484.998,344C485.632,344 486.214,343.71 486.596,343.204C486.977,342.698 487.096,342.06 486.922,341.451L483.7,330.176Z" style="fill:rgb(150,70,54);fill-rule:nonzero;"/>
            </g>
        </g>
    </g>
</svg>
