<?xml version="1.0" encoding="UTF-8" standalone="no"?>
<!DOCTYPE svg PUBLIC "-//W3C//DTD SVG 1.1//EN" "http://www.w3.org/Graphics/SVG/1.1/DTD/svg11.dtd">
<svg width="100%" height="100%" viewBox="0 0 52 48" version="1.1" xmlns="http://www.w3.org/2000/svg" xmlns:xlink="http://www.w3.org/1999/xlink" xml:space="preserve" xmlns:serif="http://www.serif.com/" style="fill-rule:evenodd;clip-rule:evenodd;stroke-linejoin:round;stroke-miterlimit:2;">
    <g transform="matrix(1,0,0,1,-1239,-1146)">
        <g transform="matrix(1,0,0,1,-340,-165)">
            <g id="iStock-1324183116" transform="matrix(1,0,0,1,1369,1015)">
                <path d="M234,298.744L239.08,306L228.92,306L234,298.744ZM246.08,298L241,305.256L235.92,298L246.08,298ZM253.08,306L242.92,306L248,298.744L253.08,306ZM242,318.586L242,308L252.586,308L242,318.586ZM240,318.586L229.414,308L240,308L240,318.586ZM226.021,307.198C226.039,307.289 226.069,307.378 226.113,307.462C226.114,307.464 226.115,307.465 226.116,307.466C226.122,307.479 226.133,307.488 226.14,307.5C226.182,307.571 226.229,307.639 226.285,307.696C226.289,307.7 226.29,307.704 226.293,307.707L240.293,321.707C240.488,321.902 240.744,322 241,322C241.256,322 241.512,321.902 241.707,321.707L255.707,307.707C255.71,307.704 255.711,307.7 255.715,307.696C255.771,307.639 255.818,307.571 255.86,307.5C255.867,307.488 255.878,307.479 255.884,307.466C255.885,307.465 255.886,307.464 255.887,307.462C255.931,307.378 255.961,307.289 255.979,307.198C255.983,307.18 255.981,307.161 255.983,307.143C255.994,307.068 256.001,306.994 255.995,306.919C255.992,306.888 255.981,306.857 255.976,306.826C255.965,306.765 255.953,306.703 255.931,306.644C255.927,306.635 255.927,306.626 255.924,306.617C255.912,306.588 255.891,306.565 255.876,306.539C255.857,306.501 255.844,306.462 255.819,306.427L248.819,296.427C248.807,296.408 248.784,296.402 248.77,296.385C248.586,296.156 248.316,296 248,296L234,296C233.684,296 233.414,296.156 233.23,296.385C233.216,296.402 233.193,296.408 233.181,296.427L226.181,306.427C226.156,306.462 226.143,306.501 226.124,306.539C226.109,306.565 226.088,306.588 226.076,306.617C226.073,306.626 226.073,306.635 226.069,306.644C226.047,306.703 226.035,306.765 226.024,306.826C226.019,306.857 226.008,306.888 226.005,306.919C225.999,306.994 226.006,307.068 226.017,307.143C226.019,307.161 226.017,307.18 226.021,307.198ZM259.976,326.321C259.887,326.912 259.545,327.432 259.032,327.749L244.419,336.929C243.302,337.63 242.017,338.001 240.7,338.001L229.414,338.001C228.577,338.001 227.781,338.242 227.088,338.674L217.393,328.979C218.878,327.492 222.907,324 228,324C231.069,324 232.885,324.806 233.694,325.286C234.48,325.753 235.37,326 236.266,326L246,326C246.554,326 247.069,326.222 247.451,326.624C247.832,327.025 248.026,327.554 247.997,328.109C247.942,329.152 246.97,330 245.83,330L233,330C232.448,330 232,330.447 232,331C232,331.553 232.448,332 233,332L245.83,332C248.054,332 249.883,330.337 249.994,328.215C249.999,328.128 249.983,328.044 249.982,327.957L256.924,324.257C257.814,323.802 258.892,323.974 259.489,324.664C259.894,325.134 260.068,325.722 259.976,326.321ZM261.001,323.355C259.79,321.957 257.739,321.595 256,322.484L249.443,325.978C249.291,325.719 249.115,325.472 248.902,325.247C248.15,324.454 247.092,324 246,324L236.266,324C235.729,324 235.193,323.851 234.716,323.566C233.512,322.853 231.369,322 228,322C222.128,322 217.668,325.851 215.975,327.561L215.707,327.293C215.316,326.902 214.684,326.902 214.293,327.293L210.293,331.293C209.902,331.684 209.902,332.316 210.293,332.707C210.684,333.098 211.316,333.098 211.707,332.707L215,329.414L225.586,340L223.293,342.293C222.902,342.684 222.902,343.316 223.293,343.707C223.488,343.902 223.744,344 224,344C224.256,344 224.512,343.902 224.707,343.707L227.706,340.708C227.706,340.708 227.707,340.708 227.708,340.707C228.163,340.251 228.769,340 229.414,340L240.701,340C242.393,340 244.047,339.523 245.483,338.622L260.092,329.445C261.097,328.821 261.776,327.792 261.954,326.622C262.131,325.452 261.785,324.261 261.001,323.355Z" style="fill:rgb(54,150,134);fill-rule:nonzero;"/>
            </g>
        </g>
    </g>
</svg>
