<?xml version="1.0" encoding="UTF-8" standalone="no"?>
<!DOCTYPE svg PUBLIC "-//W3C//DTD SVG 1.1//EN" "http://www.w3.org/Graphics/SVG/1.1/DTD/svg11.dtd">
<svg width="100%" height="100%" viewBox="0 0 150 85" version="1.1" xmlns="http://www.w3.org/2000/svg" xmlns:xlink="http://www.w3.org/1999/xlink" xml:space="preserve" xmlns:serif="http://www.serif.com/" style="fill-rule:evenodd;clip-rule:evenodd;stroke-linejoin:round;stroke-miterlimit:2;">
    <g transform="matrix(1,0,0,1,-160,-40)">
        <g transform="matrix(0.429111,0,0,0.429111,160,40)">
            <g>
                <g transform="matrix(1,0,0,1,0,-9.216)">
                    <rect x="0" y="102.024" width="347.472" height="2.376" style="fill:white;"/>
                </g>
                <g transform="matrix(1,0,0,1,45.576,118.008)">
                    <path d="M0,28.944C3.384,26.496 6.552,23.256 9.576,19.224C9.72,19.008 9.936,19.008 10.224,19.152C12.456,20.16 14.544,21.456 16.632,22.968C17.568,23.76 17.928,24.408 17.568,24.984C17.28,25.488 16.632,25.56 15.696,25.2C15.264,25.128 14.904,25.272 14.544,25.56C10.224,27.864 6.048,29.448 1.944,30.312C10.008,35.568 17.784,38.304 25.416,38.448C25.848,38.376 26.136,38.52 26.28,38.88C26.352,39.168 26.136,39.384 25.704,39.6C22.032,40.68 19.512,43.056 18.144,46.656C17.928,47.088 17.496,47.16 16.848,47.016C14.76,46.224 12.816,45.36 11.16,44.568C-0.576,39.096 -8.136,29.808 -11.448,16.776L-11.52,16.704L-22.392,16.704L-22.392,35.784C-17.856,34.992 -13.176,33.84 -8.28,32.4C-7.632,32.256 -7.272,32.256 -7.128,32.544C-6.912,32.904 -7.056,33.264 -7.56,33.552C-11.592,35.856 -16.56,38.088 -22.464,40.176C-26.64,41.472 -30.744,42.768 -34.704,44.136C-36.144,44.568 -36.936,45.072 -37.08,45.576C-37.368,46.44 -37.8,46.872 -38.448,46.944C-39.024,47.016 -39.6,46.44 -40.032,45.36C-40.824,43.416 -41.616,41.112 -42.408,38.52C-42.552,38.016 -42.336,37.728 -41.616,37.656C-37.944,37.584 -34.272,37.296 -30.744,37.008L-30.744,16.704L-38.232,16.704L-42.696,17.28C-43.2,17.568 -43.416,17.496 -43.488,17.136C-43.776,16.344 -44.064,15.552 -44.208,14.616C-44.424,14.328 -44.136,14.184 -43.416,14.328L-38.232,14.832L-30.456,14.832L-30.456,-14.832C-30.528,-15.408 -30.384,-15.696 -29.952,-15.624C-27.576,-14.976 -24.912,-13.896 -22.104,-12.528L1.224,-12.528C1.8,-12.528 2.232,-12.744 2.592,-13.104C3.744,-14.688 5.112,-16.2 6.624,-17.784C6.984,-18.216 7.488,-18.216 8.136,-17.928C10.944,-16.416 13.248,-14.472 15.192,-12.096C15.552,-11.736 15.624,-11.376 15.48,-11.16C15.264,-10.8 14.904,-10.656 14.184,-10.656L-22.032,-10.656L-22.032,-3.096L-1.512,-3.096C-0.936,-3.096 -0.432,-3.312 -0.144,-3.744C1.08,-5.256 2.376,-6.84 3.888,-8.424C4.32,-8.856 4.824,-8.856 5.4,-8.568C8.208,-6.984 10.584,-5.04 12.456,-2.736C12.816,-2.304 12.96,-2.016 12.816,-1.728C12.6,-1.44 12.168,-1.224 11.52,-1.224L-22.032,-1.224L-22.032,6.12L-2.088,6.12C-1.512,6.12 -1.08,5.976 -0.72,5.544C0.432,4.032 1.8,2.448 3.312,0.864C3.744,0.432 4.176,0.432 4.824,0.72C7.632,2.232 10.008,4.176 11.88,6.552C12.24,6.912 12.312,7.272 12.168,7.56C11.952,7.848 11.592,8.064 10.872,8.064L-22.032,8.064L-22.032,14.832L10.584,14.832C11.232,14.832 11.664,14.616 11.952,14.184C13.176,12.528 14.544,10.944 16.2,9.36C16.56,8.928 17.064,8.856 17.64,9.216C20.592,10.8 23.04,12.816 25.128,15.264C25.488,15.624 25.56,15.912 25.416,16.2C25.2,16.56 24.768,16.704 24.12,16.704L-9.72,16.704C-7.56,21.456 -4.32,25.56 0,28.944" style="fill:white;fill-rule:nonzero;"/>
                </g>
                <g transform="matrix(1,0,0,1,120.384,115.056)">
                    <path d="M0,35.784L0,37.656L-21.744,37.656L-26.136,38.304C-26.64,38.52 -26.928,38.448 -27,38.088C-27.288,37.368 -27.504,36.576 -27.72,35.64C-27.864,35.28 -27.576,35.208 -26.928,35.352L-21.744,35.784L0,35.784ZM0,3.096L0,4.968L-4.032,4.968L-4.032,14.688L0,14.688L0,16.56L-4.032,16.56L-4.032,26.424L0,26.424L0,28.296L-17.496,28.296L-21.888,28.944C-22.392,29.16 -22.68,29.088 -22.752,28.728C-23.04,28.008 -23.256,27.144 -23.472,26.208C-23.616,25.92 -23.328,25.848 -22.68,25.92L-17.496,26.424L-12.384,26.424L-12.384,16.56L-20.16,16.56L-24.624,17.208C-25.128,17.424 -25.416,17.352 -25.416,16.992C-25.776,16.272 -25.992,15.408 -26.208,14.472C-26.352,14.184 -26.064,14.112 -25.344,14.256L-20.16,14.688L-12.384,14.688L-12.384,4.968L-17.496,4.968L-21.888,5.544C-22.392,5.76 -22.68,5.76 -22.752,5.4C-23.04,4.608 -23.256,3.816 -23.472,2.88C-23.616,2.592 -23.328,2.448 -22.68,2.592L-17.496,3.096L0,3.096ZM0,-14.832L0,0.648C-1.368,0.936 -2.808,0.864 -4.248,0.288C-5.256,-0.072 -5.76,-0.792 -5.76,-1.872L-5.76,-5.832L-21.384,-5.832L-25.776,-5.256C-26.28,-5.04 -26.568,-5.04 -26.64,-5.4C-26.928,-6.12 -27.144,-6.984 -27.36,-7.92C-27.504,-8.208 -27.216,-8.352 -26.568,-8.208L-21.384,-7.704L-5.76,-7.704L-5.76,-15.12C-5.76,-15.408 -5.616,-15.552 -5.184,-15.48C-3.528,-15.336 -1.8,-15.12 0,-14.832M16.488,-14.76L16.488,0.288C16.2,0.216 15.984,0.144 15.768,0.072C14.76,-0.36 14.256,-1.08 14.256,-2.088L14.256,-5.832L2.52,-5.832L2.52,-2.016C2.52,-0.864 2.016,-0.072 0.864,0.36C0.576,0.504 0.288,0.576 0,0.648L0,-14.832C0.792,-14.76 1.656,-14.616 2.448,-14.472C3.96,-14.256 4.608,-13.824 4.608,-13.104C4.608,-12.456 4.176,-11.952 3.24,-11.736C2.736,-11.448 2.52,-11.16 2.52,-10.728L2.52,-7.704L14.256,-7.704L14.256,-14.544C14.256,-14.832 14.472,-14.976 14.904,-14.976C15.408,-14.904 15.912,-14.832 16.488,-14.76M12.528,26.424L16.488,26.424L16.488,28.296L12.528,28.296L12.528,35.784L16.488,35.784L16.488,37.656L12.528,37.656L12.528,48.168C12.456,49.392 11.808,50.256 10.584,50.76C8.856,51.336 7.128,51.264 5.4,50.544C4.536,50.112 4.104,49.32 4.104,48.168L4.104,37.656L0,37.656L0,35.784L4.104,35.784L4.104,28.296L0,28.296L0,26.424L4.104,26.424L4.104,16.56L0,16.56L0,14.688L4.104,14.688L4.104,4.968L0,4.968L0,3.096L16.488,3.096L16.488,4.968L12.528,4.968L12.528,14.688L16.488,14.688L16.488,16.56L12.528,16.56L12.528,26.424ZM16.488,0.288C18,0.648 19.512,0.648 20.952,0.144C22.032,-0.36 22.608,-1.152 22.608,-2.232L22.608,-5.832L42.984,-5.832C43.632,-5.832 44.064,-5.976 44.28,-6.336C44.424,-6.624 44.352,-6.912 43.992,-7.272C41.832,-9.792 39.312,-11.88 36.216,-13.536C35.496,-13.824 34.992,-13.824 34.632,-13.392C33.048,-11.664 31.608,-10.008 30.384,-8.424C29.952,-7.92 29.448,-7.704 28.872,-7.704L22.608,-7.704L22.608,-10.152C22.608,-10.584 22.824,-10.944 23.328,-11.16C24.264,-11.448 24.696,-11.88 24.624,-12.6C24.696,-13.248 23.976,-13.752 22.536,-13.968C20.376,-14.328 18.36,-14.544 16.488,-14.76L16.488,0.288ZM16.488,37.656L16.488,35.784L28.584,35.784C29.232,35.856 29.736,35.64 30.096,35.136C31.392,33.48 32.832,31.824 34.416,30.168C34.776,29.736 35.28,29.664 36,30.024C39.024,31.68 41.616,33.768 43.704,36.216C44.064,36.576 44.208,36.936 44.064,37.224C43.848,37.512 43.416,37.656 42.768,37.656L16.488,37.656ZM16.488,26.424L20.376,26.424L20.376,16.56L16.488,16.56L16.488,14.688L20.376,14.688L20.376,4.968L16.488,4.968L16.488,3.096L24.624,3.096C25.272,3.096 25.776,2.88 26.136,2.376C27.432,0.792 28.872,-0.864 30.456,-2.592C30.816,-3.024 31.32,-3.096 32.04,-2.736C35.064,-1.08 37.656,1.008 39.744,3.456C40.104,3.888 40.248,4.176 40.104,4.464C39.888,4.752 39.456,4.896 38.808,4.896L28.728,4.896L28.728,14.76L28.872,14.76C29.448,14.832 29.952,14.616 30.384,14.112C31.608,12.456 33.048,10.8 34.632,9.072C34.992,8.64 35.496,8.64 36.216,8.928C39.312,10.584 41.904,12.672 43.992,15.192C44.352,15.552 44.424,15.84 44.28,16.128C44.064,16.416 43.632,16.632 42.984,16.632L28.728,16.632L28.728,25.488C29.88,23.904 31.248,22.32 32.832,20.736C33.192,20.376 33.768,20.304 34.416,20.664C37.512,22.32 40.104,24.408 42.192,26.856C42.552,27.216 42.624,27.576 42.48,27.864C42.264,28.152 41.832,28.296 41.184,28.296L16.488,28.296L16.488,26.424Z" style="fill:white;fill-rule:nonzero;"/>
                </g>
                <g transform="matrix(1,0,0,1,209.592,131.832)">
                    <path d="M0,1.152L0,3.024L-6.552,3.024L-7.272,3.168L-7.272,9.864L0,9.864L0,11.736L-7.272,11.736L-7.272,18.504L0,18.504L0,20.448L-7.272,20.448L-7.272,21.672C-7.272,22.824 -7.704,23.76 -8.64,24.264C-9.792,24.84 -11.088,25.128 -12.456,25.2C-13.536,25.2 -14.472,24.984 -15.048,24.552C-15.552,24.264 -15.696,23.688 -15.624,22.752L-15.624,-1.296C-15.624,-1.728 -15.552,-1.872 -15.264,-1.872C-11.232,-0.936 -8.352,0.072 -6.552,1.152L0,1.152ZM0,-4.608L-12.024,-4.608L-12.024,-6.48L0,-6.48L0,-4.608ZM0,-13.464L-12.024,-13.464L-12.024,-11.592L0,-11.592L0,-13.464ZM0,-19.728L0,-17.856L-10.08,-17.856L-13.896,-17.568C-13.968,-13.896 -14.832,-11.16 -16.488,-9.216C-17.64,-8.352 -19.008,-7.92 -20.592,-8.064C-21.96,-8.136 -23.04,-8.712 -23.832,-9.72C-24.624,-10.728 -24.696,-11.88 -24.192,-13.176C-23.616,-14.472 -22.608,-15.48 -21.096,-16.056C-18.648,-17.064 -16.776,-19.08 -15.624,-22.104C-15.552,-22.392 -15.408,-22.536 -15.12,-22.536C-14.904,-22.464 -14.688,-22.32 -14.616,-22.032C-14.472,-21.312 -14.328,-20.664 -14.184,-19.944L-10.08,-19.728L0,-19.728ZM0,-26.784L0,-24.84L-10.728,-24.84L-15.12,-24.264C-15.624,-24.048 -15.912,-24.12 -15.984,-24.48C-16.272,-25.2 -16.488,-26.064 -16.704,-26.928C-16.848,-27.288 -16.56,-27.36 -15.912,-27.216L-10.728,-26.784L0,-26.784ZM0,-13.464L3.96,-13.464L3.96,-11.592L0,-11.592L0,-13.464ZM0,-6.48L3.96,-6.48L3.96,-4.608L0,-4.608L0,-6.48ZM22.896,1.152L22.896,3.024L15.84,3.024L15.84,9.864L22.896,9.864L22.896,11.736L15.84,11.736L15.84,18.576L22.896,18.576L22.896,20.448L15.84,20.448L15.84,24.552C15.84,25.2 16.2,25.848 17.064,26.352C17.712,26.712 19.512,26.928 22.32,27.072L22.896,27.072L22.896,34.056C16.056,33.768 11.736,32.976 10.008,31.608C8.208,30.168 7.272,28.656 7.272,27.072L7.272,20.448L0,20.448L0,18.504L7.272,18.504L7.272,11.736L0,11.736L0,9.864L7.272,9.864L7.272,3.024L0,3.024L0,1.152L22.896,1.152ZM22.896,-11.592L18.36,-11.592L18.36,-13.464L22.896,-13.464L22.896,-11.592ZM22.896,-26.784L0,-26.784L0,-24.84L7.272,-24.84L7.272,-19.728L0,-19.728L0,-17.856L7.272,-17.856L7.272,-4.104C7.272,-2.952 7.776,-2.16 8.712,-1.728C10.368,-0.936 12.096,-0.864 13.824,-1.512C15.12,-1.944 15.768,-2.808 15.84,-4.104L15.84,-17.856L22.896,-17.856L22.896,-19.728L15.84,-19.728L15.84,-24.84L22.896,-24.84L22.896,-26.784ZM22.896,-4.608L18.432,-4.608L18.432,-6.48L22.896,-6.48L22.896,-4.608ZM22.896,-24.84L22.896,-26.784L26.208,-26.784C26.856,-26.712 27.36,-26.928 27.72,-27.432C29.016,-29.088 30.456,-30.744 32.04,-32.472C32.4,-32.832 32.904,-32.904 33.624,-32.616C36.72,-30.888 39.312,-28.8 41.4,-26.352C41.76,-25.992 41.904,-25.632 41.688,-25.344C41.544,-25.056 41.112,-24.84 40.392,-24.84L22.896,-24.84ZM22.896,-17.856L36.792,-17.856C36.216,-15.336 35.496,-12.744 34.56,-10.152C34.416,-9.648 34.488,-9.288 34.632,-9.072C34.848,-9 35.28,-9 35.928,-9.216C38.952,-10.872 42.264,-13.032 45.864,-15.624C46.224,-15.84 46.584,-15.912 47.016,-15.912C47.808,-15.984 48.384,-16.272 48.744,-16.704C48.888,-17.208 48.672,-17.712 48.096,-18.144C45.576,-19.872 42.84,-21.312 39.96,-22.464C39.528,-22.68 39.096,-22.68 38.736,-22.464C37.584,-21.816 36.72,-21.096 36,-20.304C35.568,-19.944 35.136,-19.728 34.704,-19.728L22.896,-19.728L22.896,-17.856ZM22.896,-13.464L33.84,-13.464L33.84,-11.592L22.896,-11.592L22.896,-13.464ZM22.896,20.448L29.952,20.448L29.952,21.24C29.952,22.176 30.168,22.896 30.528,23.4C31.032,23.904 31.824,24.192 32.976,24.192C34.776,24.048 36.144,23.76 37.008,23.328C37.872,22.824 38.232,22.176 38.304,21.312L38.304,6.048C38.304,5.472 38.592,5.04 39.096,4.824C41.04,4.032 41.256,3.096 39.744,2.088C37.368,0.576 34.92,-0.576 32.4,-1.44C32.04,-1.512 31.752,-1.512 31.536,-1.368C29.664,0.288 28.728,1.152 28.656,1.152L22.896,1.152L22.896,3.024L29.16,3.024C29.448,2.952 29.736,3.024 29.952,3.456L29.952,9.864L22.896,9.864L22.896,11.736L29.952,11.736L29.952,18.576L22.896,18.576L22.896,20.448ZM22.896,34.056L22.896,27.072C33.552,27 39.312,26.784 40.176,26.352C40.896,25.488 41.616,23.328 42.408,19.872C42.552,19.512 42.84,19.296 43.272,19.224C43.704,19.224 43.992,19.44 44.064,19.872C44.136,21.24 44.28,22.608 44.424,24.048C44.568,25.056 45.144,25.848 46.152,26.352C47.664,26.928 48.456,28.008 48.456,29.592C48.456,30.888 47.088,31.896 44.352,32.688C41.328,33.552 35.496,33.984 26.928,34.056L22.896,34.056ZM34.776,-4.608L22.896,-4.608L22.896,-6.48L34.776,-6.48L34.776,-4.608Z" style="fill:white;fill-rule:nonzero;"/>
                </g>
                <g transform="matrix(1,0,0,1,314.28,146.016)">
                    <path d="M11.016,-25.992L-13.248,-25.992L-13.248,-21.312C-7.488,-20.016 -3.6,-17.424 -1.512,-13.68C-0.792,-12.384 -0.648,-10.944 -1.08,-9.504C-1.512,-8.136 -2.376,-7.272 -3.816,-6.84C-5.112,-6.48 -6.336,-6.696 -7.416,-7.416C-8.28,-8.136 -8.928,-9.288 -9.216,-10.8C-9.936,-13.968 -11.304,-16.56 -13.248,-18.576L-13.248,16.56C-13.32,17.784 -13.968,18.648 -15.192,19.296C-16.92,19.872 -18.576,19.8 -20.304,19.08C-21.168,18.576 -21.6,17.856 -21.6,16.92L-21.6,-9.216C-25.416,-2.88 -29.88,1.728 -34.848,4.536C-35.424,4.824 -35.784,4.824 -36,4.536C-36.216,4.248 -36.144,3.888 -35.712,3.528C-29.52,-3.312 -25.272,-13.104 -23.04,-25.992L-28.44,-25.992L-33.336,-25.488C-33.696,-25.272 -33.84,-25.416 -33.912,-25.632C-34.128,-26.424 -34.344,-27.216 -34.488,-28.08C-34.632,-28.296 -34.416,-28.368 -33.84,-28.368L-28.44,-27.864L-21.6,-27.864L-21.6,-44.712C-21.6,-45 -21.672,-45.288 -21.672,-45.504C-21.744,-45.792 -21.528,-45.936 -21.096,-45.936C-18.576,-45.72 -15.84,-45.36 -12.888,-44.928C-11.376,-44.568 -10.584,-44.064 -10.584,-43.344C-10.584,-42.624 -11.232,-42.048 -12.528,-41.76C-13.032,-41.616 -13.248,-41.256 -13.248,-40.68L-13.248,-27.864L-10.728,-27.864C-10.152,-27.864 -9.72,-28.08 -9.504,-28.44C-8.784,-29.664 -7.704,-31.032 -6.408,-32.616C-5.904,-33.192 -5.328,-33.264 -4.608,-32.832C-2.808,-31.608 -1.152,-29.952 0.288,-27.936L0.288,-27.864L13.248,-27.864L13.248,-44.136C13.176,-44.424 13.176,-44.784 13.248,-45.216C13.176,-45.648 13.392,-45.864 13.824,-45.792C16.2,-45.648 18.864,-45.36 21.744,-44.928C23.184,-44.712 23.904,-44.208 23.904,-43.488C23.832,-42.84 23.328,-42.408 22.176,-42.12C21.816,-41.976 21.6,-41.76 21.6,-41.328L21.6,-27.864L22.248,-27.864C22.824,-27.864 23.256,-28.08 23.472,-28.512C24.264,-29.664 25.344,-31.104 26.64,-32.76C27.144,-33.408 27.792,-33.48 28.512,-32.976C30.456,-31.68 32.112,-30.024 33.624,-27.936C34.056,-27.432 34.2,-26.928 33.984,-26.568C33.84,-26.208 33.48,-25.992 32.904,-25.992L21.6,-25.992L21.6,13.248C21.6,14.976 20.664,16.488 18.864,17.856C17.064,19.152 14.616,19.872 11.376,19.944C10.872,19.944 10.656,19.8 10.584,19.584C10.512,16.704 8.424,14.616 4.392,13.536C3.816,13.392 3.528,13.104 3.672,12.744C3.672,12.24 3.888,12.024 4.32,12.024C9.432,12.312 12.24,12.24 12.672,11.808C13.032,11.52 13.248,11.088 13.248,10.584L13.248,-11.016C10.44,-6.84 8.496,-4.104 7.488,-2.88C1.584,3.6 -4.32,7.776 -10.152,9.576C-10.656,9.576 -10.944,9.504 -11.016,9.36C-11.232,8.856 -10.872,8.496 -10.008,8.352C0.576,-0.216 7.632,-11.664 11.016,-25.992Z" style="fill:white;fill-rule:nonzero;"/>
                </g>
                <g transform="matrix(1,0,0,1,0,153.936)">
                    <rect x="0" y="20.448" width="347.472" height="2.376" style="fill:white;"/>
                </g>
                <g transform="matrix(1,0,0,1,10.296,188.568)">
                    <path d="M0,2.448L2.592,3.024C2.16,4.104 1.512,4.824 0.576,5.328C-0.288,5.832 -1.44,6.048 -2.808,6.048C-4.536,6.048 -5.976,5.688 -7.128,4.824C-8.208,3.96 -8.784,2.808 -8.784,1.296C-8.784,-0.216 -8.208,-1.44 -7.056,-2.304C-5.976,-3.168 -4.536,-3.6 -2.664,-3.6C-1.08,-3.6 0.216,-3.24 1.152,-2.592C1.8,-2.16 2.232,-1.584 2.52,-0.864L-0.072,-0.432C-0.216,-0.936 -0.576,-1.296 -1.008,-1.584C-1.512,-1.872 -2.088,-2.016 -2.808,-2.016C-3.816,-2.016 -4.536,-1.728 -5.184,-1.224C-5.76,-0.72 -6.048,0.072 -6.048,1.152C-6.048,2.376 -5.76,3.24 -5.184,3.744C-4.608,4.248 -3.816,4.464 -2.88,4.464C-2.16,4.464 -1.584,4.32 -1.08,3.96C-0.576,3.672 -0.216,3.168 0,2.448" style="fill:white;fill-rule:nonzero;"/>
                </g>
                <g transform="matrix(1,0,0,1,19.44,194.472)">
                    <path d="M0,-9.36L0,-5.904C0.792,-6.552 1.8,-6.912 2.88,-6.912C3.456,-6.912 3.96,-6.84 4.392,-6.696C4.896,-6.552 5.256,-6.336 5.472,-6.12C5.688,-5.904 5.832,-5.616 5.976,-5.328C6.048,-5.04 6.048,-4.608 6.048,-3.96L6.048,0L3.6,0L3.6,-3.6C3.6,-4.32 3.528,-4.752 3.456,-4.896C3.384,-5.112 3.168,-5.256 2.952,-5.4C2.736,-5.472 2.448,-5.544 2.016,-5.544C1.656,-5.544 1.296,-5.472 0.936,-5.328C0.648,-5.184 0.36,-4.968 0.216,-4.68C0.072,-4.392 0,-3.96 0,-3.384L0,0L-2.448,0L-2.448,-9.36L0,-9.36Z" style="fill:white;fill-rule:nonzero;"/>
                </g>
                <g transform="matrix(1,0,0,1,33.552,194.616)">
                    <path d="M0,-7.056L0,-5.688L-0.072,-5.688C-0.504,-5.688 -0.864,-5.616 -1.08,-5.544C-1.296,-5.4 -1.512,-5.184 -1.656,-4.824L-3.888,-5.112C-3.672,-5.76 -3.24,-6.264 -2.592,-6.624C-2.016,-6.912 -1.152,-7.056 0,-7.056M0,-3.096C-0.648,-2.952 -1.008,-2.88 -1.224,-2.808C-1.512,-2.592 -1.728,-2.376 -1.728,-2.16C-1.728,-1.872 -1.584,-1.656 -1.296,-1.512C-1.08,-1.296 -0.72,-1.224 -0.288,-1.224L0,-1.224L0,-0.072C-0.36,0 -0.72,0 -1.08,0C-2.016,0 -2.808,-0.144 -3.312,-0.504C-3.888,-0.936 -4.176,-1.368 -4.176,-1.944C-4.176,-2.376 -4.032,-2.664 -3.816,-3.024C-3.528,-3.312 -3.168,-3.528 -2.736,-3.672C-2.304,-3.816 -1.656,-3.96 -0.792,-4.104C-0.504,-4.176 -0.288,-4.176 0,-4.248L0,-3.096ZM1.656,-3.384C1.296,-3.312 0.792,-3.24 0.144,-3.096L0,-3.096L0,-4.248C0.72,-4.32 1.296,-4.464 1.656,-4.536L1.656,-4.752C1.656,-5.112 1.512,-5.328 1.296,-5.472C1.08,-5.616 0.648,-5.688 0,-5.688L0,-7.056L0.144,-7.056C1.224,-7.056 2.088,-6.984 2.592,-6.768C3.168,-6.624 3.528,-6.336 3.744,-6.048C3.96,-5.76 4.104,-5.256 4.104,-4.464L4.032,-2.376C4.032,-1.8 4.104,-1.296 4.176,-1.08C4.248,-0.792 4.392,-0.432 4.608,-0.144L2.16,-0.144C2.088,-0.216 2.016,-0.432 1.944,-0.648C1.872,-0.792 1.872,-0.792 1.872,-0.864C1.44,-0.576 0.936,-0.36 0.504,-0.216C0.288,-0.144 0.144,-0.072 0,-0.072L0,-1.224C0.288,-1.296 0.648,-1.368 0.936,-1.512C1.224,-1.728 1.44,-1.872 1.584,-2.16C1.584,-2.304 1.656,-2.592 1.656,-3.024L1.656,-3.384Z" style="fill:white;fill-rule:nonzero;"/>
                </g>
                <g transform="matrix(1,0,0,1,50.544,187.56)">
                    <path d="M0,6.912L-2.448,6.912L-2.448,3.456C-2.448,2.736 -2.52,2.232 -2.664,2.016C-2.736,1.8 -2.88,1.656 -3.168,1.512C-3.384,1.44 -3.672,1.368 -4.032,1.368C-4.464,1.368 -4.824,1.44 -5.184,1.584C-5.544,1.8 -5.76,2.016 -5.904,2.304C-5.976,2.592 -6.048,3.096 -6.048,3.816L-6.048,6.912L-8.568,6.912L-8.568,0.144L-6.264,0.144L-6.264,1.152C-5.4,0.36 -4.392,0 -3.168,0C-2.592,0 -2.088,0.072 -1.656,0.216C-1.224,0.36 -0.864,0.504 -0.648,0.72C-0.36,0.936 -0.216,1.224 -0.144,1.512C-0.072,1.8 0,2.16 0,2.664L0,6.912Z" style="fill:white;fill-rule:nonzero;"/>
                </g>
                <g transform="matrix(1,0,0,1,59.112,188.928)">
                    <path d="M0,6.912L0,8.28C-1.512,8.28 -2.664,8.136 -3.312,7.704C-3.96,7.344 -4.32,6.84 -4.32,6.192L-4.32,5.976L-1.44,6.192C-1.44,6.48 -1.296,6.624 -1.152,6.768C-0.864,6.84 -0.504,6.912 0,6.912M-2.088,2.016C-2.088,2.736 -1.872,3.24 -1.512,3.6C-1.08,3.96 -0.648,4.104 -0.072,4.104L0,4.104L0,5.472C-0.216,5.544 -0.504,5.544 -0.72,5.544C-2.016,5.544 -3.024,5.184 -3.744,4.392C-4.32,3.816 -4.608,3.024 -4.608,2.088C-4.608,1.008 -4.248,0.144 -3.456,-0.504C-2.736,-1.08 -1.8,-1.368 -0.648,-1.368L0,-1.368L0,-0C-0.648,-0 -1.08,0.144 -1.512,0.504C-1.872,0.792 -2.088,1.368 -2.088,2.016M0,4.104C0.576,4.104 1.08,3.888 1.512,3.6C1.872,3.24 2.088,2.736 2.088,2.088C2.088,1.368 1.872,0.864 1.512,0.504C1.08,0.144 0.648,-0 0,-0L0,-1.368C0.864,-1.224 1.584,-0.864 2.232,-0.288L2.232,-1.224L4.536,-1.224L4.536,4.896C4.536,5.688 4.464,6.264 4.248,6.696C4.104,7.056 3.816,7.344 3.528,7.56C3.168,7.848 2.736,7.992 2.16,8.136C1.656,8.28 0.936,8.28 0.072,8.28L0,8.28L0,6.912C0.648,6.912 1.152,6.84 1.44,6.696C1.656,6.624 1.8,6.48 1.944,6.264C2.016,6.12 2.088,5.832 2.088,5.472L2.088,4.464C1.512,5.04 0.792,5.328 0,5.472L0,4.104Z" style="fill:white;fill-rule:nonzero;"/>
                </g>
                <g transform="matrix(1,0,0,1,80.568,185.112)">
                    <path d="M0,9.36L-3.024,0L-0.36,0L1.584,6.408L3.96,0L7.056,0L9.288,6.552L11.304,0L13.896,0L10.8,9.36L7.992,9.36L5.472,2.376L2.88,9.36L0,9.36Z" style="fill:white;fill-rule:nonzero;"/>
                </g>
                <g transform="matrix(1,0,0,1,100.656,194.616)">
                    <path d="M0,-7.056L0,-5.688C-0.432,-5.688 -0.792,-5.616 -1.08,-5.544C-1.296,-5.4 -1.512,-5.184 -1.656,-4.824L-3.888,-5.112C-3.672,-5.76 -3.24,-6.264 -2.592,-6.624C-2.016,-6.912 -1.152,-7.056 0,-7.056M0,-3.096C-0.576,-2.952 -1.008,-2.88 -1.224,-2.808C-1.512,-2.592 -1.656,-2.376 -1.656,-2.16C-1.656,-1.872 -1.584,-1.656 -1.296,-1.512C-1.008,-1.296 -0.72,-1.224 -0.288,-1.224L0,-1.224L0,-0.072C-0.36,0 -0.648,0 -1.008,0C-2.016,0 -2.736,-0.144 -3.312,-0.504C-3.888,-0.936 -4.176,-1.368 -4.176,-1.944C-4.176,-2.376 -4.032,-2.664 -3.744,-3.024C-3.528,-3.312 -3.168,-3.528 -2.736,-3.672C-2.232,-3.816 -1.584,-3.96 -0.72,-4.104C-0.504,-4.176 -0.216,-4.176 0,-4.248L0,-3.096ZM1.656,-3.384C1.368,-3.312 0.864,-3.24 0.144,-3.096L0,-3.096L0,-4.248C0.792,-4.32 1.296,-4.464 1.656,-4.536L1.656,-4.752C1.656,-5.112 1.584,-5.328 1.296,-5.472C1.08,-5.616 0.648,-5.688 0,-5.688L0,-7.056L0.144,-7.056C1.296,-7.056 2.088,-6.984 2.664,-6.768C3.168,-6.624 3.6,-6.336 3.816,-6.048C4.032,-5.76 4.104,-5.256 4.104,-4.464L4.104,-2.376C4.104,-1.8 4.104,-1.296 4.176,-1.08C4.248,-0.792 4.464,-0.432 4.68,-0.144L2.16,-0.144C2.16,-0.216 2.016,-0.432 1.944,-0.648C1.944,-0.792 1.872,-0.792 1.872,-0.864C1.44,-0.576 1.008,-0.36 0.504,-0.216C0.36,-0.144 0.144,-0.072 0,-0.072L0,-1.224C0.36,-1.296 0.648,-1.368 1.008,-1.512C1.296,-1.728 1.512,-1.872 1.584,-2.16C1.656,-2.304 1.656,-2.592 1.656,-3.024L1.656,-3.384Z" style="fill:white;fill-rule:nonzero;"/>
                </g>
                <g transform="matrix(1,0,0,1,111.6,194.472)">
                    <path d="M0,-9.36L0,-5.904C0.792,-6.552 1.8,-6.912 2.88,-6.912C3.456,-6.912 3.96,-6.84 4.464,-6.696C4.896,-6.552 5.256,-6.336 5.472,-6.12C5.688,-5.904 5.832,-5.616 5.976,-5.328C6.048,-5.04 6.048,-4.608 6.048,-3.96L6.048,0L3.6,0L3.6,-3.6C3.6,-4.32 3.528,-4.752 3.456,-4.896C3.384,-5.112 3.168,-5.256 2.952,-5.4C2.736,-5.472 2.448,-5.544 2.088,-5.544C1.656,-5.544 1.296,-5.472 0.936,-5.328C0.648,-5.184 0.36,-4.968 0.216,-4.68C0.072,-4.392 0,-3.96 0,-3.384L0,0L-2.448,0L-2.448,-9.36L0,-9.36Z" style="fill:white;fill-rule:nonzero;"/>
                </g>
                <g transform="matrix(1,0,0,1,131.544,185.112)">
                    <path d="M0,9.36L0,0L9.648,0L9.648,1.584L2.664,1.584L2.664,3.672L9.144,3.672L9.144,5.256L2.664,5.256L2.664,7.776L9.864,7.776L9.864,9.36L0,9.36Z" style="fill:white;fill-rule:nonzero;"/>
                </g>
                <g transform="matrix(1,0,0,1,0,182.376)">
                    <rect x="145.584" y="2.736" width="2.448" height="9.36" style="fill:white;"/>
                </g>
                <g transform="matrix(1,0,0,1,156.312,193.248)">
                    <path d="M0,-4.32C-0.576,-4.32 -1.008,-4.176 -1.368,-3.888C-1.728,-3.6 -1.872,-3.24 -1.872,-2.736L0,-2.736L0,-1.656L-1.944,-1.656C-1.944,-1.08 -1.728,-0.648 -1.368,-0.36C-1.008,-0.072 -0.504,0.072 0,0.072L0,1.368C-1.584,1.368 -2.808,1.008 -3.528,0.216C-4.176,-0.36 -4.464,-1.152 -4.464,-2.088C-4.464,-3.24 -4.104,-4.104 -3.24,-4.752C-2.448,-5.4 -1.44,-5.688 -0.144,-5.688L0,-5.688L0,-4.32ZM0,1.368L0,0.072L0.072,0.072C0.504,0.072 0.792,0 1.08,-0.144C1.368,-0.288 1.584,-0.576 1.728,-0.936L4.176,-0.576C3.888,0.072 3.384,0.576 2.664,0.864C1.944,1.224 1.08,1.368 0.072,1.368L0,1.368ZM1.872,-2.736C1.8,-3.24 1.656,-3.672 1.296,-3.888C0.936,-4.176 0.504,-4.32 0,-4.32L0,-5.688C1.296,-5.688 2.376,-5.328 3.168,-4.68C3.96,-4.032 4.32,-3.024 4.32,-1.656L0,-1.656L0,-2.736L1.872,-2.736Z" style="fill:white;fill-rule:nonzero;"/>
                </g>
                <g transform="matrix(1,0,0,1,172.8,192.528)">
                    <path d="M0,-2.88L-2.52,-2.52C-2.592,-2.88 -2.736,-3.168 -3.024,-3.312C-3.312,-3.528 -3.744,-3.6 -4.176,-3.6C-4.824,-3.6 -5.256,-3.456 -5.688,-3.096C-6.048,-2.808 -6.192,-2.304 -6.192,-1.584C-6.192,-0.72 -6.048,-0.216 -5.616,0.144C-5.256,0.504 -4.752,0.648 -4.104,0.648C-3.672,0.648 -3.24,0.576 -2.952,0.36C-2.664,0.144 -2.448,-0.144 -2.304,-0.648L0.072,-0.36C-0.144,0.432 -0.648,1.08 -1.368,1.512C-2.088,1.944 -3.024,2.088 -4.248,2.088C-5.616,2.088 -6.696,1.8 -7.56,1.152C-8.352,0.576 -8.784,-0.288 -8.784,-1.44C-8.784,-2.52 -8.352,-3.456 -7.488,-4.032C-6.696,-4.68 -5.616,-4.968 -4.176,-4.968C-3.096,-4.968 -2.16,-4.824 -1.512,-4.464C-0.792,-4.104 -0.36,-3.6 0,-2.88" style="fill:white;fill-rule:nonzero;"/>
                </g>
                <g transform="matrix(1,0,0,1,180.864,192.24)">
                    <path d="M0,-4.536L0,-3.096L-1.728,-3.096L-1.728,-0.36C-1.728,0.216 -1.728,0.504 -1.656,0.576C-1.656,0.72 -1.584,0.792 -1.44,0.864C-1.296,0.864 -1.224,0.936 -1.008,0.936C-0.792,0.936 -0.504,0.864 -0.072,0.72L0.144,2.16C-0.432,2.304 -1.08,2.376 -1.8,2.376C-2.232,2.376 -2.592,2.376 -2.952,2.232C-3.312,2.16 -3.6,2.016 -3.744,1.8C-3.96,1.656 -4.032,1.44 -4.104,1.152C-4.176,0.936 -4.176,0.504 -4.176,-0.144L-4.176,-3.096L-5.328,-3.096L-5.328,-4.536L-4.176,-4.536L-4.176,-5.904L-1.728,-6.912L-1.728,-4.536L0,-4.536Z" style="fill:white;fill-rule:nonzero;"/>
                </g>
                <g transform="matrix(1,0,0,1,186.912,187.56)">
                    <path d="M0,6.912L-2.448,6.912L-2.448,0.144L-0.144,0.144L-0.144,1.08C0.216,0.648 0.576,0.36 0.864,0.216C1.224,0.072 1.584,0 1.944,0C2.52,0 3.096,0.072 3.6,0.288L2.808,1.872C2.376,1.656 2.016,1.584 1.656,1.584C1.296,1.584 1.008,1.656 0.792,1.8C0.504,1.944 0.36,2.16 0.216,2.52C0.072,2.88 0,3.672 0,4.824L0,6.912Z" style="fill:white;fill-rule:nonzero;"/>
                </g>
                <g transform="matrix(1,0,0,1,195.48,191.088)">
                    <path d="M0,0C0,0.648 0.216,1.224 0.648,1.584C1.08,1.944 1.656,2.088 2.304,2.088L2.304,3.528C1.44,3.528 0.648,3.384 -0.144,3.168C-0.936,2.88 -1.512,2.448 -1.944,1.872C-2.376,1.368 -2.52,0.72 -2.52,-0.072C-2.52,-0.72 -2.376,-1.296 -1.944,-1.8C-1.512,-2.376 -0.936,-2.808 -0.216,-3.096C0.576,-3.384 1.368,-3.528 2.304,-3.528L2.304,-2.088C1.656,-2.088 1.08,-1.872 0.648,-1.584C0.216,-1.224 0,-0.648 0,0M2.304,2.088C2.952,2.088 3.528,1.944 3.96,1.584C4.392,1.224 4.608,0.648 4.608,0C4.608,-0.648 4.392,-1.224 3.96,-1.584C3.528,-1.944 2.952,-2.088 2.304,-2.088L2.304,-3.528C3.744,-3.528 4.896,-3.24 5.76,-2.52C6.696,-1.872 7.128,-1.008 7.128,0C7.128,1.008 6.696,1.872 5.76,2.52C4.824,3.24 3.672,3.528 2.304,3.528L2.304,2.088Z" style="fill:white;fill-rule:nonzero;"/>
                </g>
                <g transform="matrix(1,0,0,1,207.936,194.328)">
                    <path d="M0,-6.624L2.232,-6.624L2.232,-5.688C3.096,-6.408 4.032,-6.768 5.184,-6.768C5.76,-6.768 6.264,-6.696 6.768,-6.552C7.2,-6.336 7.56,-6.048 7.848,-5.688C8.208,-6.048 8.712,-6.336 9.144,-6.552C9.648,-6.696 10.152,-6.768 10.656,-6.768C11.376,-6.768 11.952,-6.696 12.456,-6.48C12.888,-6.264 13.248,-5.976 13.464,-5.616C13.68,-5.328 13.752,-4.824 13.752,-4.176L13.752,0.144L11.304,0.144L11.304,-3.744C11.304,-4.392 11.16,-4.824 11.016,-5.04C10.8,-5.256 10.44,-5.4 9.936,-5.4C9.648,-5.4 9.288,-5.328 9,-5.184C8.64,-5.04 8.424,-4.824 8.352,-4.536C8.208,-4.248 8.136,-3.744 8.136,-3.096L8.136,0.144L5.616,0.144L5.616,-3.6C5.616,-4.248 5.616,-4.68 5.472,-4.824C5.4,-5.04 5.256,-5.184 5.112,-5.256C4.896,-5.4 4.68,-5.4 4.32,-5.4C3.96,-5.4 3.6,-5.328 3.312,-5.184C3.024,-5.04 2.808,-4.824 2.664,-4.536C2.52,-4.248 2.448,-3.816 2.448,-3.168L2.448,0.144L0,0.144L0,-6.624Z" style="fill:white;fill-rule:nonzero;"/>
                </g>
                <g transform="matrix(1,0,0,1,229.608,194.616)">
                    <path d="M0,-7.056L0,-5.688C-0.432,-5.688 -0.792,-5.616 -1.008,-5.544C-1.224,-5.4 -1.44,-5.184 -1.584,-4.824L-3.888,-5.112C-3.6,-5.76 -3.168,-6.264 -2.52,-6.624C-1.944,-6.912 -1.08,-7.056 0,-7.056M0,-3.096C-0.576,-2.952 -0.936,-2.88 -1.152,-2.808C-1.44,-2.592 -1.656,-2.376 -1.656,-2.16C-1.656,-1.872 -1.512,-1.656 -1.224,-1.512C-1.008,-1.296 -0.648,-1.224 -0.288,-1.224L0,-1.224L0,-0.072C-0.288,0 -0.648,0 -1.008,0C-1.944,0 -2.736,-0.144 -3.312,-0.504C-3.816,-0.936 -4.104,-1.368 -4.104,-1.944C-4.104,-2.376 -3.96,-2.664 -3.744,-3.024C-3.456,-3.312 -3.096,-3.528 -2.664,-3.672C-2.232,-3.816 -1.584,-3.96 -0.72,-4.104C-0.432,-4.176 -0.216,-4.176 0,-4.248L0,-3.096ZM1.728,-3.384C1.368,-3.312 0.864,-3.24 0.216,-3.096L0,-3.096L0,-4.248C0.792,-4.32 1.368,-4.464 1.728,-4.536L1.728,-4.752C1.728,-5.112 1.584,-5.328 1.368,-5.472C1.152,-5.616 0.72,-5.688 0,-5.688L0,-7.056L0.216,-7.056C1.296,-7.056 2.16,-6.984 2.664,-6.768C3.24,-6.624 3.6,-6.336 3.816,-6.048C4.032,-5.76 4.176,-5.256 4.176,-4.464L4.104,-2.376C4.104,-1.8 4.176,-1.296 4.248,-1.08C4.32,-0.792 4.464,-0.432 4.68,-0.144L2.232,-0.144C2.16,-0.216 2.088,-0.432 2.016,-0.648C1.944,-0.792 1.944,-0.792 1.872,-0.864C1.512,-0.576 1.008,-0.36 0.576,-0.216C0.36,-0.144 0.216,-0.072 0,-0.072L0,-1.224C0.36,-1.296 0.72,-1.368 1.008,-1.512C1.296,-1.728 1.512,-1.872 1.584,-2.16C1.656,-2.304 1.728,-2.592 1.728,-3.024L1.728,-3.384Z" style="fill:white;fill-rule:nonzero;"/>
                </g>
                <g transform="matrix(1,0,0,1,242.496,192.24)">
                    <path d="M0,-4.536L0,-3.096L-1.728,-3.096L-1.728,-0.36C-1.728,0.216 -1.728,0.504 -1.656,0.576C-1.656,0.72 -1.584,0.792 -1.44,0.864C-1.368,0.864 -1.224,0.936 -1.008,0.936C-0.792,0.936 -0.504,0.864 -0.072,0.72L0.144,2.16C-0.432,2.304 -1.08,2.376 -1.8,2.376C-2.232,2.376 -2.664,2.376 -3.024,2.232C-3.312,2.16 -3.6,2.016 -3.744,1.8C-3.96,1.656 -4.032,1.44 -4.104,1.152C-4.176,0.936 -4.176,0.504 -4.176,-0.144L-4.176,-3.096L-5.328,-3.096L-5.328,-4.536L-4.176,-4.536L-4.176,-5.904L-1.728,-6.912L-1.728,-4.536L0,-4.536Z" style="fill:white;fill-rule:nonzero;"/>
                </g>
                <g transform="matrix(1,0,0,1,249.84,193.248)">
                    <path d="M0,-4.32C-0.504,-4.32 -0.936,-4.176 -1.296,-3.888C-1.656,-3.6 -1.872,-3.24 -1.8,-2.736L0,-2.736L0,-1.656L-1.872,-1.656C-1.872,-1.08 -1.656,-0.648 -1.296,-0.36C-0.936,-0.072 -0.504,0.072 0,0.072L0,1.368C-1.512,1.368 -2.736,1.008 -3.456,0.216C-4.104,-0.36 -4.392,-1.152 -4.392,-2.088C-4.392,-3.24 -4.032,-4.104 -3.168,-4.752C-2.376,-5.4 -1.368,-5.688 -0.072,-5.688L0,-5.688L0,-4.32ZM0,1.368L0,0.072L0.144,0.072C0.576,0.072 0.864,0 1.152,-0.144C1.44,-0.288 1.584,-0.576 1.728,-0.936L4.248,-0.576C3.888,0.072 3.384,0.576 2.736,0.864C2.016,1.224 1.152,1.368 0.144,1.368L0,1.368ZM1.872,-2.736C1.872,-3.24 1.728,-3.672 1.368,-3.888C1.008,-4.176 0.576,-4.32 0.072,-4.32L0,-4.32L0,-5.688C1.368,-5.688 2.448,-5.328 3.168,-4.68C4.032,-4.032 4.392,-3.024 4.392,-1.656L0,-1.656L0,-2.736L1.872,-2.736Z" style="fill:white;fill-rule:nonzero;"/>
                </g>
                <g transform="matrix(1,0,0,1,260.568,187.56)">
                    <path d="M0,6.912L-2.52,6.912L-2.52,0.144L-0.216,0.144L-0.216,1.08C0.216,0.648 0.576,0.36 0.864,0.216C1.224,0.072 1.584,0 1.944,0C2.52,0 3.096,0.072 3.6,0.288L2.808,1.872C2.376,1.656 2.016,1.584 1.656,1.584C1.296,1.584 1.008,1.656 0.792,1.8C0.504,1.944 0.36,2.16 0.216,2.52C0.072,2.88 0,3.672 0,4.824L0,6.912Z" style="fill:white;fill-rule:nonzero;"/>
                </g>
                <g transform="matrix(1,0,0,1,0,182.376)">
                    <path d="M267.192,2.736L269.64,2.736L269.64,4.392L267.192,4.392L267.192,2.736ZM267.192,5.328L269.64,5.328L269.64,12.096L267.192,12.096L267.192,5.328Z" style="fill:white;fill-rule:nonzero;"/>
                </g>
                <g transform="matrix(1,0,0,1,277.704,194.616)">
                    <path d="M0,-7.056L0,-5.688C-0.504,-5.688 -0.864,-5.616 -1.08,-5.544C-1.296,-5.4 -1.512,-5.184 -1.656,-4.824L-3.888,-5.112C-3.672,-5.76 -3.24,-6.264 -2.592,-6.624C-2.016,-6.912 -1.152,-7.056 0,-7.056M0,-3.096C-0.648,-2.952 -1.008,-2.88 -1.224,-2.808C-1.512,-2.592 -1.728,-2.376 -1.728,-2.16C-1.728,-1.872 -1.584,-1.656 -1.296,-1.512C-1.08,-1.296 -0.72,-1.224 -0.288,-1.224L0,-1.224L0,-0.072C-0.36,0 -0.72,0 -1.08,0C-2.016,0 -2.808,-0.144 -3.312,-0.504C-3.888,-0.936 -4.176,-1.368 -4.176,-1.944C-4.176,-2.376 -4.032,-2.664 -3.816,-3.024C-3.528,-3.312 -3.168,-3.528 -2.736,-3.672C-2.304,-3.816 -1.584,-3.96 -0.792,-4.104C-0.504,-4.176 -0.288,-4.176 0,-4.248L0,-3.096ZM1.656,-3.384C1.368,-3.312 0.792,-3.24 0.144,-3.096L0,-3.096L0,-4.248C0.72,-4.32 1.296,-4.464 1.656,-4.536L1.656,-4.752C1.656,-5.112 1.512,-5.328 1.296,-5.472C1.08,-5.616 0.648,-5.688 0,-5.688L0,-7.056L0.144,-7.056C1.224,-7.056 2.088,-6.984 2.664,-6.768C3.168,-6.624 3.528,-6.336 3.744,-6.048C3.96,-5.76 4.104,-5.256 4.104,-4.464L4.032,-2.376C4.032,-1.8 4.104,-1.296 4.176,-1.08C4.248,-0.792 4.392,-0.432 4.608,-0.144L2.16,-0.144C2.088,-0.216 2.016,-0.432 1.944,-0.648C1.872,-0.792 1.872,-0.792 1.872,-0.864C1.44,-0.576 0.936,-0.36 0.504,-0.216C0.288,-0.144 0.144,-0.072 0,-0.072L0,-1.224C0.288,-1.296 0.648,-1.368 0.936,-1.512C1.224,-1.728 1.44,-1.872 1.584,-2.16C1.584,-2.304 1.656,-2.592 1.656,-3.024L1.656,-3.384Z" style="fill:white;fill-rule:nonzero;"/>
                </g>
                <g transform="matrix(1,0,0,1,0,182.376)">
                    <rect x="286.2" y="2.736" width="2.52" height="9.36" style="fill:white;"/>
                </g>
                <g transform="matrix(1,0,0,1,292.32,189.576)">
                    <path d="M0,3.024L2.52,2.736C2.592,3.096 2.808,3.312 3.168,3.528C3.456,3.672 3.96,3.744 4.536,3.744C5.112,3.744 5.616,3.672 5.976,3.528C6.192,3.384 6.264,3.24 6.264,3.024C6.264,2.88 6.192,2.808 6.12,2.664C5.976,2.592 5.688,2.52 5.256,2.448C3.24,2.088 2.016,1.8 1.44,1.584C0.72,1.224 0.36,0.72 0.36,0.072C0.36,-0.576 0.648,-1.008 1.296,-1.44C1.944,-1.872 2.952,-2.016 4.248,-2.016C5.544,-2.016 6.552,-1.872 7.128,-1.584C7.776,-1.296 8.208,-0.864 8.424,-0.288L6.12,0C5.976,-0.216 5.832,-0.432 5.544,-0.576C5.256,-0.72 4.824,-0.792 4.32,-0.792C3.672,-0.792 3.24,-0.72 2.952,-0.576C2.736,-0.504 2.664,-0.36 2.664,-0.216C2.664,-0.072 2.736,0 2.88,0.144C3.096,0.216 3.888,0.432 5.184,0.648C6.552,0.864 7.488,1.08 7.992,1.44C8.496,1.728 8.784,2.232 8.784,2.808C8.784,3.384 8.424,3.96 7.704,4.392C6.984,4.824 5.904,5.04 4.536,5.04C3.24,5.04 2.232,4.896 1.44,4.536C0.72,4.176 0.216,3.672 0,3.024" style="fill:white;fill-rule:nonzero;"/>
                </g>
                <g transform="matrix(1,0,0,1,0,182.808)">
                    <rect x="314.28" y="2.592" width="2.592" height="9.216" style="fill:white;"/>
                </g>
                <g transform="matrix(1,0,0,1,330.552,187.704)">
                    <path d="M0,6.912L-2.52,6.912L-2.52,3.456C-2.52,2.736 -2.52,2.304 -2.664,2.088C-2.736,1.872 -2.952,1.656 -3.168,1.584C-3.384,1.44 -3.672,1.368 -4.032,1.368C-4.464,1.368 -4.824,1.44 -5.184,1.656C-5.544,1.8 -5.76,2.016 -5.904,2.304C-5.976,2.592 -6.048,3.096 -6.048,3.888L-6.048,6.912L-8.568,6.912L-8.568,0.144L-6.264,0.144L-6.264,1.152C-5.4,0.36 -4.392,0 -3.168,0C-2.592,0 -2.088,0.072 -1.656,0.216C-1.224,0.36 -0.864,0.504 -0.648,0.792C-0.432,1.008 -0.216,1.224 -0.144,1.512C-0.072,1.8 0,2.232 0,2.736L0,6.912Z" style="fill:white;fill-rule:nonzero;"/>
                </g>
                <g transform="matrix(1,0,0,1,343.224,192.528)">
                    <path d="M0,-2.88L-2.448,-2.52C-2.52,-2.88 -2.736,-3.168 -3.024,-3.312C-3.312,-3.528 -3.672,-3.6 -4.176,-3.6C-4.752,-3.6 -5.256,-3.456 -5.616,-3.096C-5.976,-2.808 -6.192,-2.304 -6.192,-1.584C-6.192,-0.72 -5.976,-0.216 -5.616,0.144C-5.256,0.504 -4.752,0.648 -4.104,0.648C-3.6,0.648 -3.24,0.576 -2.952,0.36C-2.664,0.144 -2.448,-0.144 -2.304,-0.648L0.144,-0.36C-0.144,0.432 -0.576,1.08 -1.296,1.512C-2.016,1.944 -3.024,2.088 -4.176,2.088C-5.544,2.088 -6.696,1.8 -7.488,1.152C-8.28,0.576 -8.712,-0.288 -8.712,-1.44C-8.712,-2.52 -8.28,-3.456 -7.488,-4.032C-6.696,-4.68 -5.544,-4.968 -4.176,-4.968C-3.024,-4.968 -2.088,-4.824 -1.44,-4.464C-0.792,-4.104 -0.288,-3.6 0,-2.88" style="fill:white;fill-rule:nonzero;"/>
                </g>
                <g transform="matrix(1,0,0,1,0,189.936)">
                    <rect x="347.04" y="2.736" width="2.52" height="1.8" style="fill:white;"/>
                </g>
            </g>
            <g>
                <g transform="matrix(1,0,0,1,208.44,32.544)">
                    <path d="M0,-32.544L-30.528,-32.4L-14.904,0L0,-32.544Z" style="fill:rgb(247,148,61);fill-rule:nonzero;"/>
                </g>
                <g transform="matrix(1,0,0,1,308.448,21.456)">
                    <path d="M0,32.976C-0.936,32.976 -1.872,33.624 -2.664,34.848C-8.496,43.632 -20.736,48.024 -39.312,48.024C-44.424,48.024 -48.024,47.52 -50.184,46.512C-52.344,45.576 -53.568,44.28 -53.928,42.768C-54.216,41.184 -54.432,36.216 -54.432,27.936C-54.432,25.992 -54.288,21.96 -54.072,15.84C-46.656,15.912 -41.256,16.848 -37.8,18.576C-34.344,20.304 -32.112,22.896 -31.176,26.208C-30.6,28.152 -29.808,29.088 -28.728,29.088C-27.144,29.088 -26.424,28.584 -26.424,27.576C-26.424,27.288 -26.424,27 -26.568,26.64C-26.856,25.344 -27.072,23.904 -27.072,22.32C-27.072,11.016 -26.712,4.248 -26.136,1.944C-25.992,1.656 -25.992,1.368 -25.992,1.08C-25.992,0.216 -26.64,-0.216 -28.008,-0.216C-29.088,-0.216 -29.88,0.36 -30.312,1.512C-30.528,2.16 -31.536,3.672 -33.264,5.976C-34.992,8.28 -37.152,9.792 -39.6,10.512C-42.12,11.232 -45.072,11.592 -48.456,11.592L-54,11.52C-54.072,8.424 -54.144,6.264 -54.144,4.968C-54.144,-2.664 -53.712,-9.72 -52.848,-16.128C-48.744,-16.632 -44.496,-16.92 -40.176,-16.92C-32.328,-16.92 -26.352,-16.056 -22.248,-14.328C-18.072,-12.528 -13.536,-8.928 -8.496,-3.456C-7.56,-2.448 -6.696,-1.944 -5.904,-1.944C-4.536,-1.944 -3.816,-2.448 -3.816,-3.528C-5.328,-9.216 -6.84,-14.904 -8.424,-20.664L-67.32,-20.808L-78.624,-20.592C-82.224,-20.88 -83.736,-20.88 -87.984,-20.88C-87.984,-20.88 -90.864,-20.304 -92.016,-17.064C-93.456,-13.032 -94.824,-9.288 -95.4,-7.776C-95.904,-6.336 -98.424,-0.936 -102.888,8.28C-107.352,17.568 -111.024,24.768 -113.76,29.952C-127.512,6.336 -133.128,-7.776 -134.28,-12.024C-135.648,-17.064 -137.52,-20.736 -142.056,-20.448L-145.872,-20.664L-163.368,-20.88C-167.04,-20.88 -169.2,-20.736 -169.848,-20.592C-170.424,-20.376 -170.712,-20.016 -170.712,-19.44C-170.712,-18.504 -169.92,-18 -168.336,-17.784C-165.384,-17.496 -163.296,-16.92 -161.928,-16.2C-160.632,-15.408 -158.904,-13.032 -156.672,-9.072C-154.512,-5.04 -152.928,-2.232 -151.992,-0.432L-148.32,5.904C-145.8,10.296 -143.424,14.544 -141.192,18.792L-147.384,31.176L-159.768,10.944C-166.464,-0.072 -170.28,-6.48 -171.144,-8.28C-173.304,-13.032 -175.248,-20.808 -178.992,-20.736C-182.736,-20.592 -183.096,-20.664 -185.4,-20.664C-185.4,-20.664 -216.936,-21.312 -224.28,-21.312C-237.888,-21.312 -249.192,-17.496 -258.12,-9.792C-267.048,-2.16 -271.512,6.84 -271.512,17.208C-271.512,27.648 -267.12,36.432 -258.264,43.56C-249.48,50.688 -237.384,54.288 -222.192,54.288C-210.672,54.288 -201.096,51.624 -193.464,46.368C-185.832,41.112 -182.016,37.224 -182.016,34.776C-182.016,33.624 -182.736,33.048 -184.248,33.048C-185.184,33.048 -186.12,33.624 -187.056,34.704C-195.408,43.848 -204.552,48.384 -214.56,48.384C-223.704,48.384 -231.408,45.216 -237.6,38.952C-243.792,32.688 -246.888,24.192 -246.888,13.536C-246.888,7.272 -245.736,1.944 -243.576,-2.52C-241.344,-6.984 -238.248,-10.512 -234.288,-13.032C-230.328,-15.624 -225.36,-16.92 -219.528,-16.92C-216.288,-16.92 -209.88,-16.848 -203.544,-16.776C-202.464,-16.344 -201.456,-15.84 -200.52,-15.192C-198.576,-13.896 -195.624,-10.44 -191.736,-4.68C-187.776,1.08 -182.16,10.08 -174.816,22.176L-156.456,52.776L-151.128,52.776L-140.184,30.456L-137.736,25.488C-137.16,26.64 -136.584,27.72 -136.008,28.872C-128.88,43.056 -124.632,51.048 -123.552,52.776L-118.08,52.776L-105.768,27.72L-93.6,3.096C-89.64,-4.752 -86.616,-9.864 -84.456,-12.24C-82.368,-14.616 -80.64,-16.128 -79.128,-16.848C-78.552,-16.704 -77.976,-16.488 -77.616,-16.272C-76.248,-15.48 -75.384,-13.968 -75.096,-11.736C-74.736,-9.576 -74.592,-3.6 -74.592,6.048L-75.024,34.272C-75.024,40.176 -75.888,44.064 -77.472,46.008C-79.128,47.88 -82.296,48.888 -87.048,48.888C-88.92,48.888 -89.784,49.392 -89.784,50.4C-89.784,51.552 -88.632,52.128 -86.4,52.128C-85.896,52.128 -85.104,52.056 -84.096,51.984C-75.888,51.624 -69.696,51.48 -65.592,51.48C-61.992,51.48 -56.88,51.552 -50.472,51.768C-43.992,51.912 -37.08,52.056 -29.592,52.056L-3.168,52.128L1.584,36.504C1.944,35.64 2.088,34.92 2.088,34.344C2.088,33.408 1.368,32.976 0,32.976" style="fill:rgb(0,104,178);fill-rule:nonzero;"/>
                </g>
            </g>
        </g>
    </g>
</svg>
